{"glyphs":{"0":{"ha":939,"x_min":0,"x_max":0,"o":"m 457 -22 b 863 519 683 -22 863 215 b 767 857 863 644 835 765 b 481 994 701 944 611 994 b 76 454 256 994 76 758 b 179 106 76 418 72 240 b 457 -22 264 -1 385 -22 z m 706 442 b 486 31 706 264 650 31 b 233 531 292 31 233 338 b 453 942 233 710 289 942 b 706 442 649 942 706 636 z "},"1":{"ha":643,"x_min":0,"x_max":0,"o":"m 418 551 b 435 1008 418 726 428 939 b 29 882 286 961 81 894 l 39 853 b 258 882 96 861 199 879 b 265 558 264 819 265 604 l 265 465 b 258 44 265 328 264 104 b 36 24 222 42 57 25 l 31 -6 b 338 0 68 -3 269 0 b 628 -6 403 0 592 -3 l 621 24 b 425 44 592 26 453 39 b 418 492 421 72 418 310 z "},"2":{"ha":803,"x_min":0,"x_max":0,"o":"m 675 286 b 639 151 668 246 650 185 b 346 100 606 124 457 103 l 201 96 l 201 99 b 408 267 271 149 371 229 b 658 713 553 407 658 553 b 300 994 658 883 529 994 b 215 989 269 994 242 993 b 147 975 190 986 167 981 b 138 1064 142 1011 140 1031 l 106 1074 b 76 721 106 951 92 817 l 110 728 b 142 897 114 753 132 856 b 271 933 163 915 197 933 b 497 636 365 933 497 856 b 293 243 497 514 433 381 b -10 0 240 192 168 125 l 288 0 b 624 -4 379 0 472 0 b 631 -103 631 -67 628 -32 l 661 -112 b 678 61 669 -4 668 -17 b 708 293 689 146 703 242 z "},"3":{"ha":807,"x_min":0,"x_max":0,"o":"m 147 753 b 172 846 156 797 164 828 b 325 864 200 856 250 864 l 531 864 b 250 547 454 768 288 586 b 561 265 422 507 561 419 b 329 32 561 140 456 32 b 140 114 272 32 186 44 b 135 233 138 151 133 181 l 103 247 b 81 -72 104 165 94 -3 l 113 -68 b 132 -7 117 -47 121 -25 b 269 -22 182 -24 231 -22 b 589 92 413 -22 524 31 b 713 349 674 172 713 258 b 396 631 713 482 589 579 b 701 972 451 699 618 876 l 388 972 b 176 978 306 972 233 972 b 174 1063 175 1010 174 1036 l 144 1072 b 114 744 138 994 126 822 z "},"4":{"ha":883,"x_min":0,"x_max":0,"o":"m 497 292 l 497 242 b 490 43 497 178 494 83 b 289 24 453 40 310 26 l 283 -6 b 543 0 321 -3 496 0 b 797 -6 611 0 767 -3 l 790 24 b 640 43 763 26 663 39 b 633 246 636 74 633 167 l 633 292 b 778 285 689 292 739 292 b 788 194 782 271 786 225 l 819 188 b 846 550 815 397 839 494 l 814 547 b 781 404 807 521 794 444 b 633 381 757 390 683 381 l 633 443 b 646 1043 633 638 639 992 b -19 292 478 857 140 464 z m 497 381 l 133 381 b 497 797 263 535 424 713 z "},"5":{"ha":800,"x_min":0,"x_max":0,"o":"m 653 1071 b 631 996 649 1056 642 1032 b 369 972 611 986 571 972 l 175 972 l 135 585 b 413 488 279 560 358 525 b 535 276 453 460 535 389 b 290 31 535 110 406 31 b 115 111 206 31 149 63 b 110 233 113 133 110 183 l 78 246 b 56 -72 78 167 69 7 l 86 -67 b 104 -8 93 -40 100 -18 b 254 -22 146 -19 201 -22 b 689 361 500 -22 689 164 b 549 582 689 450 629 531 b 196 693 444 649 321 674 l 222 863 l 367 863 b 606 850 504 863 575 857 b 606 733 608 814 606 771 l 638 724 b 685 1075 651 910 667 985 z "},"6":{"ha":876,"x_min":0,"x_max":0,"o":"m 575 1035 b 88 304 290 846 88 574 b 421 -22 88 85 225 -22 b 790 301 657 -22 790 154 b 392 557 790 532 563 582 l 372 525 b 633 244 522 517 633 419 b 456 31 633 104 563 31 b 247 349 351 31 247 129 b 650 1038 247 653 479 901 z "},"7":{"ha":744,"x_min":0,"x_max":0,"o":"m 507 24 b 368 44 485 26 399 40 b 510 465 374 96 431 276 b 747 974 588 651 715 893 b 446 972 692 972 581 972 b 142 983 243 972 169 975 b 138 1068 139 1008 138 1042 l 106 1075 b 68 682 100 938 90 843 l 101 693 b 135 825 110 731 121 789 b 615 849 175 853 418 849 b 428 494 607 831 501 632 b 213 44 353 354 238 114 b 86 24 193 38 124 28 l 78 -6 b 285 0 146 -3 228 0 b 513 -6 363 0 461 -3 z "},"8":{"ha":854,"x_min":0,"x_max":0,"o":"m 401 -22 b 768 271 608 -22 768 100 b 510 553 768 357 721 461 b 732 801 667 618 732 708 b 454 994 732 881 674 994 b 121 758 225 994 121 856 b 318 508 121 672 144 601 b 76 214 226 464 76 375 b 401 -22 76 113 169 -22 z m 431 28 b 225 243 321 28 225 108 b 356 482 225 365 288 429 b 618 207 586 382 618 296 b 431 28 618 97 538 28 z m 457 578 b 254 799 361 625 254 678 b 421 946 254 879 318 946 b 590 778 492 946 590 907 b 457 578 590 676 528 610 z "},"9":{"ha":875,"x_min":0,"x_max":0,"o":"m 350 -56 b 781 672 571 140 781 422 b 454 994 781 893 633 994 b 79 671 203 994 79 808 b 481 429 79 447 301 383 l 500 461 b 232 710 343 451 232 554 b 415 942 232 868 314 942 b 611 633 510 942 611 847 b 274 -58 611 331 392 69 z "}," ":{"ha":347,"x_min":0,"x_max":0,"o":""},"!":{"ha":500,"x_min":0,"x_max":0,"o":"m 249 269 b 351 985 257 383 331 890 b 160 961 282 974 236 968 b 193 253 176 861 194 326 z m 307 -1 l 299 146 l 150 128 l 154 -21 z "},"\"":{"ha":394,"x_min":0,"x_max":0,"o":"m 124 658 b 171 994 138 769 156 892 l 35 1010 b 82 650 54 901 69 783 z m 313 658 b 360 994 326 769 344 892 l 222 1010 b 269 650 242 901 257 783 z "},"#":{"ha":764,"x_min":0,"x_max":0,"o":"m 296 465 b 308 608 300 518 303 556 b 464 611 364 611 408 611 b 451 465 460 557 457 519 z m 49 381 b 217 394 96 386 150 390 b 183 119 207 294 194 186 l 278 125 b 292 397 279 183 286 300 b 446 401 347 400 390 401 b 411 119 435 300 422 188 l 506 125 b 519 401 507 183 513 303 b 697 394 599 401 638 400 l 708 465 l 524 465 b 536 611 528 519 531 558 b 704 604 610 611 649 608 l 715 675 l 543 675 b 575 921 553 764 565 861 l 481 914 b 467 675 479 863 472 763 l 315 675 b 347 921 325 764 338 861 l 253 914 b 239 675 251 863 244 763 l 68 675 l 57 590 b 235 606 108 596 161 601 b 224 465 232 554 229 517 l 60 465 z "},"$":{"ha":738,"x_min":0,"x_max":0,"o":"m 376 -215 l 390 31 b 610 281 522 57 610 156 b 438 543 610 414 531 489 l 469 903 b 569 801 507 892 558 842 l 569 718 l 601 707 b 622 981 601 838 614 939 l 589 976 b 578 928 586 963 582 942 b 474 956 558 935 519 949 b 511 1189 489 1081 496 1131 l 444 1179 l 428 961 b 354 961 400 963 372 963 b 376 1189 363 1089 368 1135 l 315 1179 l 307 953 b 115 725 165 919 115 814 b 267 490 115 606 178 546 l 226 86 b 110 175 176 100 132 140 b 106 279 108 213 106 264 l 74 283 b 58 -18 76 239 67 43 l 90 -11 b 104 63 97 25 100 42 b 218 28 124 49 175 33 b 174 -228 199 -126 186 -179 l 240 -215 l 267 25 b 346 25 293 21 326 22 b 313 -228 331 -81 322 -154 z m 279 640 b 206 774 235 667 206 707 b 303 910 206 843 257 900 z m 396 571 l 322 610 l 351 918 b 426 917 364 922 396 922 z m 426 397 b 513 236 479 361 513 314 b 394 81 513 151 450 93 z m 310 465 l 382 425 l 347 74 b 271 74 332 71 299 71 z "},"%":{"ha":1063,"x_min":0,"x_max":0,"o":"m 406 733 b 297 567 406 606 338 567 b 175 767 193 567 175 714 b 286 935 175 890 232 935 b 406 733 390 935 406 778 z m 278 526 b 511 768 403 526 511 633 b 303 972 511 899 440 972 b 69 732 168 972 69 863 b 278 526 69 599 144 526 z m 313 0 b 582 511 360 100 508 383 b 874 975 649 628 826 921 l 764 972 b 542 575 761 947 589 658 b 201 -8 483 472 247 53 z m 760 0 b 993 240 886 0 993 104 b 785 444 993 374 921 444 b 551 206 650 444 551 335 b 760 0 551 74 628 0 z m 781 40 b 657 240 675 40 657 194 b 768 407 657 364 714 407 b 888 208 874 407 888 244 b 781 40 888 79 819 40 z "},"&":{"ha":1131,"x_min":0,"x_max":0,"o":"m 1053 -22 b 842 178 1003 17 931 86 b 986 482 931 289 972 390 b 1089 497 1007 488 1058 494 l 1099 526 b 929 521 1081 524 972 521 b 750 526 867 521 797 524 l 760 497 b 867 482 796 493 839 488 b 803 214 878 406 842 275 b 501 528 731 288 593 428 b 746 799 640 601 746 703 b 479 994 746 894 657 994 b 181 767 315 994 181 893 b 336 510 181 686 242 597 b 88 226 222 467 88 369 b 426 -22 88 83 236 -22 b 775 104 599 -22 706 42 b 986 -39 844 56 917 -6 z m 247 278 b 367 478 247 353 292 436 b 733 140 476 367 610 235 b 489 46 688 94 603 46 b 247 278 364 46 247 138 z m 613 781 b 465 563 613 714 578 628 b 317 799 389 640 317 726 b 454 946 317 892 372 946 b 613 781 532 946 613 888 z "},"’":{"ha":319,"x_min":0,"x_max":0,"o":"m 106 692 b 253 999 150 788 206 915 l 124 1044 b 68 690 121 931 107 813 z "},"(":{"ha":486,"x_min":0,"x_max":0,"o":"m 413 -175 b 235 444 350 -87 235 89 b 429 1089 235 756 364 994 l 365 1081 b 106 360 171 790 106 582 b 353 -185 106 82 296 -135 z "},")":{"ha":486,"x_min":0,"x_max":0,"o":"m 74 1079 b 251 460 136 992 251 815 b 57 -185 251 149 122 -90 l 121 -176 b 381 544 315 114 381 322 b 133 1089 381 822 190 1039 z "},"*":{"ha":569,"x_min":0,"x_max":0,"o":"m 457 746 b 299 832 403 772 324 814 b 476 847 329 838 425 844 l 410 971 b 293 844 378 931 315 867 l 290 847 b 350 1032 296 876 328 956 l 211 1018 b 275 844 233 958 265 876 b 133 960 250 860 186 910 l 93 825 b 271 831 147 829 240 832 b 121 708 246 807 186 758 l 254 643 b 285 821 261 708 276 794 b 356 642 297 793 331 721 z "},"+":{"ha":847,"x_min":0,"x_max":0,"o":"m 475 804 l 381 793 b 386 511 383 719 388 597 l 115 511 l 104 424 b 385 443 189 433 278 440 b 367 140 382 331 376 228 l 461 156 b 454 443 457 232 453 354 b 732 438 558 444 629 446 l 743 511 l 456 511 b 475 804 458 618 465 719 z "},",":{"ha":444,"x_min":0,"x_max":0,"o":"m 250 -243 b 303 138 306 -106 310 8 l 139 122 l 142 -22 l 213 -19 b 208 -249 240 -68 236 -143 z "},"-":{"ha":625,"x_min":0,"x_max":0,"o":"m 108 556 l 97 443 b 510 489 199 465 442 489 l 528 556 z "},".":{"ha":444,"x_min":0,"x_max":0,"o":"m 307 10 l 300 158 l 139 128 l 143 -21 z "},"/":{"ha":681,"x_min":0,"x_max":0,"o":"m 119 0 b 389 511 167 100 315 383 b 676 974 456 628 633 925 l 568 972 b 346 575 565 947 393 658 b 6 -8 288 472 51 51 z "},":":{"ha":444,"x_min":0,"x_max":0,"o":"m 307 8 l 300 157 l 139 126 l 143 -22 z m 307 417 l 300 565 l 139 535 l 143 386 z "},";":{"ha":444,"x_min":0,"x_max":0,"o":"m 139 122 l 142 -22 l 213 -19 b 208 -249 240 -68 236 -143 l 250 -243 b 303 138 306 -106 310 8 z m 304 417 l 297 565 l 139 535 l 143 386 z "},"<":{"ha":847,"x_min":0,"x_max":0,"o":"m 710 149 l 746 246 b 235 478 581 322 378 414 b 736 726 367 539 554 632 l 718 800 b 104 475 513 688 283 567 l 104 472 b 710 149 228 404 542 244 z "},"=":{"ha":847,"x_min":0,"x_max":0,"o":"m 732 540 l 743 614 l 414 614 l 115 614 l 104 526 b 414 546 189 536 307 543 b 732 540 518 547 629 549 z m 732 329 l 743 403 l 414 403 l 115 403 l 104 315 b 414 335 189 325 307 332 b 732 329 518 336 629 338 z "},">":{"ha":847,"x_min":0,"x_max":0,"o":"m 144 800 l 108 703 b 619 471 274 626 476 535 b 118 222 488 410 300 317 l 136 149 b 750 474 344 263 569 382 l 750 476 b 144 800 622 546 310 706 z "},"?":{"ha":847,"x_min":0,"x_max":0,"o":"m 388 232 b 438 454 404 315 419 417 b 574 538 486 485 521 497 b 740 796 643 590 740 674 b 393 994 740 900 640 994 b 193 965 326 994 263 986 b 186 1117 189 1007 188 1064 l 154 1128 b 129 707 154 1014 146 840 l 161 717 b 192 847 171 776 181 819 b 385 947 217 886 281 947 b 568 751 514 947 568 832 b 457 528 568 689 561 607 b 296 438 390 478 358 465 b 329 218 306 364 322 292 z m 450 -3 l 442 133 l 288 111 l 289 -22 z "},"@":{"ha":1235,"x_min":0,"x_max":0,"o":"m 1174 540 b 664 976 1174 794 944 976 b 61 371 318 976 61 714 b 594 -139 61 10 324 -139 b 943 -14 692 -139 825 -94 l 922 21 b 608 -79 819 -44 726 -79 b 165 406 375 -79 165 100 b 675 924 165 714 356 924 b 1092 514 893 924 1092 754 b 900 225 1092 325 1003 225 b 865 260 876 225 869 238 b 821 544 853 325 839 438 b 643 693 808 622 756 693 b 524 660 607 693 550 672 b 513 747 519 690 515 718 l 483 749 b 461 496 483 643 474 578 l 490 501 b 522 614 496 522 507 558 b 624 646 540 624 585 646 b 729 510 693 646 718 582 b 739 444 733 485 736 474 b 410 278 572 435 410 407 b 576 149 410 221 450 149 b 768 240 643 149 717 197 b 776 154 772 218 776 169 b 1174 540 1011 146 1174 307 z m 763 286 b 621 210 721 250 669 210 b 517 283 556 210 517 238 b 747 403 517 358 578 381 b 763 286 753 357 756 332 z "},"A":{"ha":989,"x_min":0,"x_max":0,"o":"m 586 -6 b 821 0 624 -3 781 0 b 1051 -6 894 0 1035 -3 l 1047 24 b 925 43 1006 29 965 35 b 736 506 861 165 775 399 b 590 931 683 651 607 869 b 696 949 622 939 660 944 l 700 978 b 463 972 660 975 521 972 b 282 978 439 972 324 975 l 283 949 b 393 931 317 944 363 939 b 47 43 374 878 97 131 b -72 24 10 35 -32 28 l -76 -6 b 85 0 -44 -3 49 0 b 294 -6 125 0 251 -3 l 289 24 b 169 43 250 28 204 33 b 267 432 183 150 258 413 b 588 450 318 440 539 450 b 733 43 610 410 708 115 b 593 24 690 33 642 28 z m 578 492 l 286 497 b 433 907 300 543 390 783 l 436 907 b 578 492 460 831 547 583 z "},"B":{"ha":949,"x_min":0,"x_max":0,"o":"m 226 468 b 217 43 226 346 226 139 b 72 24 188 35 104 26 l 67 -6 b 278 0 107 -3 247 0 b 407 -6 307 0 358 -3 b 524 -11 457 -8 504 -11 b 847 256 717 -11 847 96 b 563 524 847 403 700 501 l 563 528 b 742 672 608 547 690 592 b 778 803 776 728 778 763 b 465 983 778 868 736 983 b 67 972 378 983 113 974 l 74 943 b 217 929 114 940 169 938 b 226 556 222 872 226 656 z m 376 482 b 540 449 410 486 485 478 b 692 203 635 399 692 292 b 504 33 692 107 636 33 b 393 63 476 33 425 40 b 376 407 386 81 376 288 z m 376 601 b 381 938 376 726 378 924 b 436 946 393 943 414 946 b 624 746 550 946 624 865 b 543 571 624 675 594 608 b 376 524 490 532 419 524 z "},"C":{"ha":1124,"x_min":0,"x_max":0,"o":"m 1031 660 b 1061 1089 1032 792 1040 936 l 1029 1082 b 1000 958 1025 1065 1008 976 b 710 994 961 969 832 994 b 296 879 569 994 440 976 b 76 464 174 797 76 656 b 364 39 76 286 183 128 b 679 -22 476 -17 628 -22 b 1069 61 897 -22 1038 35 l 1089 121 b 760 46 990 63 865 46 b 243 546 467 46 243 275 b 656 946 243 763 403 946 b 990 785 835 946 964 846 b 999 669 994 761 999 696 z "},"D":{"ha":1306,"x_min":0,"x_max":0,"o":"m 226 475 b 217 43 226 314 224 67 b 72 24 183 33 99 25 l 67 -6 b 472 -3 100 -4 394 -3 b 1236 578 1006 -3 1236 285 b 1008 914 1236 704 1171 836 b 617 978 917 958 779 978 b 296 972 510 978 344 972 b 67 978 238 972 88 975 l 69 949 b 217 929 103 946 181 936 b 226 585 224 901 226 647 z m 385 517 b 394 918 385 578 390 897 b 517 926 424 924 485 926 b 914 824 646 926 813 899 b 1065 503 1029 738 1065 621 b 546 51 1065 207 811 51 b 394 76 510 51 456 53 b 385 463 389 126 385 388 z "},"E":{"ha":885,"x_min":0,"x_max":0,"o":"m 226 476 b 217 43 226 324 222 68 b 74 24 179 33 96 25 l 67 -6 b 278 0 121 -3 231 0 b 714 -12 365 0 674 -6 b 715 -97 715 -35 715 -60 l 744 -103 b 790 218 750 -33 781 178 l 758 210 b 728 88 750 179 743 136 b 394 40 664 51 533 40 b 385 468 390 81 385 383 l 385 496 b 656 465 504 496 613 488 b 653 372 656 438 654 401 l 679 361 b 715 621 686 406 711 596 l 686 618 b 672 558 683 599 679 579 b 385 536 639 546 504 536 l 385 564 b 394 933 385 646 390 914 b 707 875 468 933 682 915 b 707 775 708 847 707 785 l 738 765 b 765 1053 740 808 758 1024 l 733 1047 b 722 982 731 1022 726 999 b 314 972 685 972 358 972 b 192 974 283 972 238 974 b 67 978 146 975 100 976 l 72 949 b 217 929 106 944 190 935 b 226 540 222 886 226 665 z "},"F":{"ha":883,"x_min":0,"x_max":0,"o":"m 226 456 b 219 43 226 301 224 75 b 72 24 181 32 89 26 l 67 -6 b 299 0 115 -3 219 0 b 554 -6 392 0 506 -3 l 549 24 b 396 43 517 26 449 32 b 385 443 389 82 385 328 l 385 485 b 668 450 464 485 635 475 b 675 332 672 408 675 361 l 704 324 b 726 633 707 428 718 567 l 697 629 b 678 547 692 603 685 568 b 385 528 633 533 453 528 l 385 558 b 396 931 385 663 389 911 b 738 865 465 931 688 913 b 744 756 742 839 744 778 l 776 744 b 800 1086 778 847 789 1022 l 768 1079 b 750 981 764 1049 754 997 b 310 972 721 972 369 972 b 67 978 256 972 115 975 l 72 949 b 219 929 114 944 201 938 b 226 542 224 890 226 667 z "},"G":{"ha":1257,"x_min":0,"x_max":0,"o":"m 1075 232 b 1081 386 1075 271 1076 363 b 1201 401 1111 393 1189 400 l 1208 431 b 990 426 1192 428 1057 426 b 763 431 942 426 835 428 l 771 401 b 911 386 797 396 883 389 b 917 275 915 361 917 318 l 917 201 b 913 64 917 132 915 85 b 736 28 854 33 772 28 b 243 544 436 28 243 318 b 646 946 243 767 404 946 b 1007 811 872 946 971 854 b 1022 683 1013 779 1019 731 l 1054 667 b 1074 1096 1050 796 1065 1042 l 1042 1089 b 1017 960 1038 1060 1022 982 b 706 994 971 976 825 994 b 297 882 564 994 424 968 b 78 463 175 799 78 658 b 354 44 78 289 179 132 b 722 -22 471 -14 632 -22 b 1078 24 817 -22 997 0 b 1075 188 1075 63 1075 136 z "},"H":{"ha":1346,"x_min":0,"x_max":0,"o":"m 226 447 b 219 43 226 342 225 108 b 75 24 193 38 107 25 l 67 -6 b 311 0 108 -3 239 0 b 538 -6 371 0 508 -3 l 531 24 b 396 43 503 25 433 35 b 385 414 390 94 385 272 l 385 463 b 961 494 404 467 896 493 l 961 414 b 953 43 961 267 961 90 b 815 24 928 38 836 25 l 808 -6 b 1046 0 856 -3 986 0 b 1279 -6 1111 0 1253 -3 l 1272 24 b 1132 43 1244 25 1160 38 b 1119 481 1122 90 1119 319 l 1119 578 b 1129 929 1119 615 1122 901 b 1271 949 1169 935 1243 946 l 1279 978 b 1047 972 1254 975 1138 972 b 808 978 961 972 832 975 l 815 949 b 953 929 856 946 929 935 b 961 608 961 894 961 717 l 961 544 b 385 540 906 535 419 540 l 385 608 b 396 929 385 728 390 892 b 531 949 418 935 492 946 l 538 978 b 311 972 515 975 397 972 b 67 978 222 972 90 975 l 74 949 b 219 929 108 946 194 935 b 226 578 225 883 226 622 z "},"I":{"ha":611,"x_min":0,"x_max":0,"o":"m 385 569 b 392 929 385 740 386 901 b 538 949 442 935 510 946 l 544 978 b 331 972 521 975 401 972 b 67 978 221 972 93 975 l 74 949 b 219 929 100 946 192 935 b 226 576 225 882 226 622 l 226 494 b 219 43 226 358 225 101 b 72 24 190 38 96 25 l 67 -6 b 283 0 108 -3 236 0 b 544 -6 369 0 514 -3 l 538 24 b 392 43 510 26 426 35 b 385 483 386 71 385 303 z "},"J":{"ha":582,"x_min":0,"x_max":0,"o":"m 385 571 b 392 929 385 601 386 886 b 540 949 440 935 517 946 l 544 978 b 304 972 497 975 379 972 b 31 978 228 972 64 975 l 36 949 b 219 929 76 946 186 935 b 232 569 231 857 232 622 l 232 474 b 199 -82 232 163 219 -10 b 51 -331 183 -139 160 -215 l 81 -340 b 319 -104 231 -226 285 -164 b 385 176 379 -1 385 61 l 385 497 z "},"K":{"ha":1111,"x_min":0,"x_max":0,"o":"m 226 489 b 219 43 226 290 224 104 b 72 24 186 35 106 26 l 67 -6 b 304 0 107 -3 239 0 b 553 -6 379 0 526 -3 l 550 24 b 392 50 529 26 428 35 b 385 417 386 101 385 296 l 385 450 b 472 522 403 467 446 503 b 1088 -40 511 481 979 1 l 1135 -25 b 608 631 1063 42 663 544 b 985 932 667 683 925 900 b 1076 949 1021 942 1056 946 l 1085 978 b 933 972 1038 975 974 972 b 722 978 879 972 781 975 l 728 949 b 831 929 758 944 799 938 b 385 513 790 861 475 592 l 385 556 b 392 929 385 669 386 885 b 533 949 424 935 517 946 l 539 978 b 311 972 513 975 363 972 b 67 978 254 972 94 975 l 71 949 b 219 929 104 946 186 935 b 226 568 224 892 226 699 z "},"L":{"ha":818,"x_min":0,"x_max":0,"o":"m 226 510 b 219 43 226 372 225 104 b 72 24 190 33 93 25 l 67 -6 b 303 0 106 -3 233 0 b 708 -8 378 0 678 -6 b 701 -171 708 -46 701 -151 l 733 -178 b 807 279 753 8 779 156 l 774 274 b 724 115 763 235 744 163 b 392 44 671 81 557 44 b 385 524 386 75 385 342 l 385 574 b 392 929 385 685 386 885 b 556 949 447 935 522 946 l 563 978 b 307 972 535 975 400 972 b 67 978 222 972 101 975 l 71 949 b 219 929 107 946 189 935 b 226 590 225 885 226 669 z "},"M":{"ha":1472,"x_min":0,"x_max":0,"o":"m 1008 -6 b 1265 0 1049 -3 1201 0 b 1461 -6 1331 0 1414 -3 l 1454 24 b 1339 43 1429 28 1374 35 b 1157 929 1315 131 1183 774 b 1274 949 1186 936 1254 946 l 1278 978 b 1085 972 1246 975 1129 972 b 897 978 1036 972 942 975 l 904 949 b 999 929 929 944 972 939 b 715 243 996 897 756 322 b 463 929 672 349 503 803 b 567 949 489 935 528 944 l 572 978 b 364 972 533 975 424 972 b 164 978 290 972 182 975 l 172 949 b 310 929 188 946 272 935 b 107 42 289 815 138 129 b 8 24 76 33 32 28 l -1 -6 b 153 0 44 -3 115 0 b 360 -6 179 0 340 -3 l 354 24 b 231 43 333 26 256 38 b 343 821 225 222 307 608 l 349 821 b 665 -11 365 768 626 75 b 1018 819 707 68 981 735 l 1024 819 b 1164 40 1040 717 1161 92 b 1011 24 1136 38 1031 25 z "},"N":{"ha":1261,"x_min":0,"x_max":0,"o":"m 61 943 b 214 926 114 940 182 933 b 175 43 214 881 199 101 b 60 24 143 33 99 29 l 56 -6 b 244 0 96 -3 204 0 b 450 -6 281 0 425 -3 l 446 24 b 294 43 419 26 315 36 b 264 850 276 93 260 822 b 593 454 310 797 574 475 b 1051 -69 625 418 1010 -31 b 1075 635 1060 -14 1071 569 b 1101 929 1078 679 1085 875 b 1207 949 1139 935 1189 946 l 1213 978 b 1038 972 1183 975 1068 972 b 831 978 1007 972 857 975 l 838 949 b 978 929 876 946 950 935 b 1007 215 1006 857 1007 369 b 706 560 963 253 742 521 b 372 982 682 585 403 935 b 56 972 264 976 133 975 z "},"O":{"ha":1315,"x_min":0,"x_max":0,"o":"m 639 -22 b 1239 538 981 -22 1239 197 b 1071 882 1239 667 1181 801 b 686 994 950 971 833 994 b 76 469 303 994 76 744 b 210 133 76 339 108 238 b 639 -22 339 1 499 -22 z m 707 35 b 236 528 436 35 236 279 b 635 942 236 814 444 942 b 1069 436 865 942 1069 731 b 707 35 1069 214 906 35 z "},"P":{"ha":888,"x_min":0,"x_max":0,"o":"m 382 581 b 389 938 382 700 383 897 b 568 907 450 938 522 929 b 681 718 639 872 681 803 b 463 446 681 508 513 458 l 458 411 b 750 547 508 418 658 456 b 846 768 806 603 846 674 b 710 939 846 803 833 888 b 375 979 642 967 526 979 b 67 978 311 979 108 978 l 71 949 b 219 929 104 946 193 939 b 226 585 225 882 226 629 l 226 529 b 219 43 226 400 225 104 b 72 24 183 36 93 26 l 67 -6 b 307 0 106 -3 238 0 b 572 -6 371 0 526 -3 l 565 24 b 389 43 522 28 422 38 b 382 522 383 83 382 404 z "},"Q":{"ha":1314,"x_min":0,"x_max":0,"o":"m 1335 -314 b 951 51 1279 -278 1028 -64 b 1238 535 1118 146 1238 310 b 1111 844 1238 590 1228 731 b 681 994 1001 953 851 994 b 76 472 285 994 76 731 b 208 126 76 417 79 256 b 632 -22 332 3 506 -22 b 713 -18 658 -22 688 -19 b 774 -11 739 -15 761 -12 b 1303 -328 849 -78 1217 -312 z m 689 31 b 232 524 446 31 232 286 b 624 943 232 796 419 943 b 1074 463 858 943 1074 728 b 689 31 1074 232 938 31 z "},"R":{"ha":1039,"x_min":0,"x_max":0,"o":"m 225 501 b 218 43 225 356 224 83 b 71 24 179 33 90 25 l 65 -6 b 300 0 97 -3 243 0 b 539 -6 364 0 504 -3 l 533 24 b 388 43 503 26 411 36 b 381 411 383 107 381 321 l 381 447 b 514 456 404 447 461 451 b 1003 -44 536 426 906 0 l 1064 -35 b 681 517 919 118 696 482 b 876 779 788 576 876 692 b 757 938 876 856 831 908 b 365 976 663 975 497 976 l 65 975 l 69 946 b 218 929 100 943 194 935 b 225 586 224 903 225 636 z m 381 533 b 388 938 381 632 383 881 b 708 740 628 938 708 829 b 550 517 708 603 610 539 b 381 490 490 494 431 490 z "},"S":{"ha":767,"x_min":0,"x_max":0,"o":"m 119 -132 b 150 13 129 -81 143 -14 b 342 -22 189 -8 275 -22 b 683 281 531 -22 683 88 b 451 606 683 456 567 533 b 251 811 346 672 251 721 b 421 950 251 874 301 950 b 606 825 518 950 590 875 b 611 719 608 800 611 767 l 643 706 b 676 1086 643 819 657 949 l 644 1082 b 619 969 636 1044 629 1003 b 432 994 586 978 514 994 b 146 750 226 994 146 858 b 390 426 146 593 254 515 b 568 200 481 368 568 313 b 371 25 568 97 481 25 b 156 176 275 25 193 88 b 146 299 151 201 144 281 l 114 307 b 110 88 118 274 110 124 b 88 -140 110 33 90 -121 z "},"T":{"ha":1036,"x_min":0,"x_max":0,"o":"m 439 511 b 432 43 439 390 436 151 b 254 24 399 39 286 26 l 247 -6 b 517 0 288 -3 454 0 b 789 -6 593 0 756 -3 l 783 24 b 604 43 757 26 631 39 b 597 511 600 154 597 389 l 597 574 b 604 914 597 674 600 876 b 967 856 739 914 932 883 b 964 713 968 825 967 768 l 996 704 b 1040 1063 1000 746 1032 1031 l 1006 1057 b 986 971 1000 1031 992 988 b 522 957 964 967 724 957 b 74 971 335 957 96 967 b 65 1061 69 1000 67 1043 l 33 1067 b 13 717 35 957 18 783 l 44 725 b 72 856 53 771 61 825 b 432 914 110 879 210 914 b 439 574 436 882 439 676 z "},"U":{"ha":1190,"x_min":0,"x_max":0,"o":"m 182 399 b 601 -22 182 156 314 -22 b 892 75 739 -22 828 18 b 1028 460 999 169 1028 303 b 1025 631 1028 510 1025 576 l 1025 697 b 1032 929 1025 735 1028 908 b 1129 949 1068 938 1106 943 l 1138 978 b 968 972 1114 975 1040 972 b 743 978 882 972 778 975 l 753 949 b 904 929 789 946 872 935 b 911 585 910 883 911 629 l 911 457 b 818 97 911 290 893 168 b 618 31 771 53 710 31 b 343 425 468 31 343 131 l 343 610 b 350 929 343 729 346 906 b 494 949 394 938 457 944 l 501 978 b 296 972 467 975 360 972 b 61 978 189 972 100 975 l 65 949 b 175 929 103 943 146 936 b 182 615 179 890 182 740 z "},"V":{"ha":1038,"x_min":0,"x_max":0,"o":"m -37 949 b 49 929 7 942 31 935 b 521 -61 117 835 476 17 b 1021 929 539 -17 992 913 b 1106 949 1057 938 1079 943 l 1113 978 b 957 972 1079 975 1022 972 b 754 978 872 972 774 975 l 761 949 b 889 929 806 942 863 935 b 578 197 861 782 610 261 b 260 929 542 242 269 882 b 390 949 283 938 361 946 l 397 978 b 157 972 367 975 243 972 b -43 978 79 972 1 975 z "},"W":{"ha":1464,"x_min":0,"x_max":0,"o":"m -32 949 b 72 929 10 942 39 938 b 396 -72 147 764 347 44 b 728 758 471 100 681 639 b 1060 -72 768 643 1022 8 b 1418 929 1074 -25 1378 886 b 1507 949 1442 938 1476 944 l 1511 978 b 1331 972 1468 975 1411 972 b 1149 978 1247 972 1178 975 l 1156 949 b 1286 929 1201 942 1246 938 b 1094 211 1278 794 1113 274 l 1092 211 b 839 893 1046 328 869 814 b 950 915 865 904 908 908 l 954 944 b 756 939 921 942 842 939 b 558 944 675 939 611 942 l 565 915 b 701 893 589 911 661 901 b 453 219 671 764 469 267 l 450 219 b 257 929 425 283 271 868 b 383 949 290 935 364 944 l 390 978 b 167 972 358 975 285 972 b -37 978 60 972 1 975 z "},"X":{"ha":985,"x_min":0,"x_max":0,"o":"m 1000 -50 b 561 568 900 81 642 458 b 875 929 604 622 850 921 b 961 949 897 935 935 942 l 964 978 b 819 972 929 975 878 972 b 639 978 744 972 671 975 l 644 949 b 743 929 663 946 719 938 b 531 611 708 858 571 664 b 314 929 497 649 332 893 b 432 949 342 936 379 943 l 440 978 b 219 972 383 975 293 972 b 7 978 94 972 24 975 l 11 949 b 101 929 40 943 76 938 b 431 497 165 863 332 622 b 67 43 385 439 124 78 b -21 24 40 32 7 28 l -31 -6 b 121 0 4 -3 43 0 b 328 -6 200 0 306 -6 l 324 24 b 208 43 299 26 239 36 b 464 453 261 153 426 411 b 942 -64 525 383 749 82 z "},"Y":{"ha":908,"x_min":0,"x_max":0,"o":"m 397 306 b 390 43 397 217 396 64 b 268 24 358 35 294 26 l 261 -6 b 451 0 300 -3 401 0 b 700 -6 546 0 671 -3 l 697 24 b 563 43 671 28 579 39 b 556 301 557 78 556 264 l 556 354 b 561 453 556 388 557 429 b 897 929 581 514 867 919 b 992 949 926 938 971 944 l 996 978 b 828 972 964 975 892 972 b 653 978 751 972 674 975 l 657 949 b 765 929 675 946 736 936 b 525 508 761 872 547 549 b 258 929 482 582 340 785 b 378 949 290 936 353 943 l 385 978 b 193 972 365 975 272 972 b -49 978 67 972 -25 975 l -43 949 b 54 929 -15 943 36 938 b 393 442 118 869 382 478 b 397 350 397 406 397 369 z "},"Z":{"ha":997,"x_min":0,"x_max":0,"o":"m 906 307 b 847 126 896 272 865 150 b 272 50 775 67 444 43 b 936 964 346 163 860 868 b 539 957 850 960 568 957 b 188 969 504 957 217 964 b 183 1099 186 990 185 1061 l 151 1106 b 107 690 147 1046 138 824 l 139 694 b 189 856 147 718 175 819 b 708 915 231 894 614 918 b 38 -8 664 835 107 65 b 417 0 161 -4 357 0 b 836 -17 544 0 819 -7 b 829 -150 836 -43 831 -124 l 861 -160 b 938 315 867 -89 931 275 z "},"[":{"ha":486,"x_min":0,"x_max":0,"o":"m 256 611 b 265 1032 256 667 257 996 l 424 1047 l 431 1083 l 132 1074 b 138 603 135 1054 138 661 l 138 497 b 132 -165 138 300 139 -101 l 421 -175 l 431 -139 l 265 -118 b 256 500 253 -67 256 294 z "},"\\":{"ha":681,"x_min":0,"x_max":0,"o":"m 563 0 l 676 -8 b 336 575 631 51 394 472 b 114 972 289 658 117 947 l 6 974 b 293 511 49 925 226 628 b 563 0 367 383 515 100 z "},"]":{"ha":486,"x_min":0,"x_max":0,"o":"m 231 500 b 221 -118 231 294 233 -67 l 56 -139 l 65 -175 l 354 -165 b 349 497 347 -101 349 300 l 349 603 b 354 1074 349 661 351 1054 l 56 1083 l 63 1047 l 221 1032 b 231 611 229 996 231 667 z "},"^":{"ha":847,"x_min":0,"x_max":0,"o":"m 746 429 b 425 989 651 585 492 875 b 101 421 335 824 214 613 l 174 404 b 419 865 267 572 360 743 b 649 394 483 735 572 547 z "},"_":{"ha":694,"x_min":0,"x_max":0,"o":"m 694 -174 l 694 -104 l 0 -104 l 0 -174 z "},"‘":{"ha":319,"x_min":0,"x_max":0,"o":"m 85 1044 b 103 690 94 919 97 799 l 236 722 b 122 1039 185 806 143 938 z "},"a":{"ha":989,"x_min":0,"x_max":0,"o":"m 586 -6 b 821 0 624 -3 781 0 b 1051 -6 894 0 1035 -3 l 1047 24 b 925 43 1006 29 965 35 b 736 506 861 165 775 399 b 590 931 683 651 607 869 b 696 949 622 939 660 944 l 700 978 b 463 972 660 975 521 972 b 282 978 439 972 324 975 l 283 949 b 393 931 317 944 363 939 b 47 43 374 878 97 131 b -72 24 10 35 -32 28 l -76 -6 b 85 0 -44 -3 49 0 b 294 -6 125 0 251 -3 l 289 24 b 169 43 250 28 204 33 b 267 432 183 150 258 413 b 588 450 318 440 539 450 b 733 43 610 410 708 115 b 593 24 690 33 642 28 z m 578 492 l 286 497 b 433 907 300 543 390 783 l 436 907 b 578 492 460 831 547 583 z "},"b":{"ha":949,"x_min":0,"x_max":0,"o":"m 226 468 b 217 43 226 346 226 139 b 72 24 188 35 104 26 l 67 -6 b 278 0 107 -3 247 0 b 407 -6 307 0 358 -3 b 524 -11 457 -8 504 -11 b 847 256 717 -11 847 96 b 563 524 847 403 700 501 l 563 528 b 742 672 608 547 690 592 b 778 803 776 728 778 763 b 465 983 778 868 736 983 b 67 972 378 983 113 974 l 74 943 b 217 929 114 940 169 938 b 226 556 222 872 226 656 z m 376 482 b 540 449 410 486 485 478 b 692 203 635 399 692 292 b 504 33 692 107 636 33 b 393 63 476 33 425 40 b 376 407 386 81 376 288 z m 376 601 b 381 938 376 726 378 924 b 436 946 393 943 414 946 b 624 746 550 946 624 865 b 543 571 624 675 594 608 b 376 524 490 532 419 524 z "},"c":{"ha":1124,"x_min":0,"x_max":0,"o":"m 1031 660 b 1061 1089 1032 792 1040 936 l 1029 1082 b 1000 958 1025 1065 1008 976 b 710 994 961 969 832 994 b 296 879 569 994 440 976 b 76 464 174 797 76 656 b 364 39 76 286 183 128 b 679 -22 476 -17 628 -22 b 1069 61 897 -22 1038 35 l 1089 121 b 760 46 990 63 865 46 b 243 546 467 46 243 275 b 656 946 243 763 403 946 b 990 785 835 946 964 846 b 999 669 994 761 999 696 z "},"d":{"ha":1306,"x_min":0,"x_max":0,"o":"m 226 475 b 217 43 226 314 224 67 b 72 24 183 33 99 25 l 67 -6 b 472 -3 100 -4 394 -3 b 1236 578 1006 -3 1236 285 b 1008 914 1236 704 1171 836 b 617 978 917 958 779 978 b 296 972 510 978 344 972 b 67 978 238 972 88 975 l 69 949 b 217 929 103 946 181 936 b 226 585 224 901 226 647 z m 385 517 b 394 918 385 578 390 897 b 517 926 424 924 485 926 b 914 824 646 926 813 899 b 1065 503 1029 738 1065 621 b 546 51 1065 207 811 51 b 394 76 510 51 456 53 b 385 463 389 126 385 388 z "},"e":{"ha":885,"x_min":0,"x_max":0,"o":"m 226 476 b 217 43 226 324 222 68 b 74 24 179 33 96 25 l 67 -6 b 278 0 121 -3 231 0 b 714 -12 365 0 674 -6 b 715 -97 715 -35 715 -60 l 744 -103 b 790 218 750 -33 781 178 l 758 210 b 728 88 750 179 743 136 b 394 40 664 51 533 40 b 385 468 390 81 385 383 l 385 496 b 656 465 504 496 613 488 b 653 372 656 438 654 401 l 679 361 b 715 621 686 406 711 596 l 686 618 b 672 558 683 599 679 579 b 385 536 639 546 504 536 l 385 564 b 394 933 385 646 390 914 b 707 875 468 933 682 915 b 707 775 708 847 707 785 l 738 765 b 765 1053 740 808 758 1024 l 733 1047 b 722 982 731 1022 726 999 b 314 972 685 972 358 972 b 192 974 283 972 238 974 b 67 978 146 975 100 976 l 72 949 b 217 929 106 944 190 935 b 226 540 222 886 226 665 z "},"f":{"ha":883,"x_min":0,"x_max":0,"o":"m 226 456 b 219 43 226 301 224 75 b 72 24 181 32 89 26 l 67 -6 b 299 0 115 -3 219 0 b 554 -6 392 0 506 -3 l 549 24 b 396 43 517 26 449 32 b 385 443 389 82 385 328 l 385 485 b 668 450 464 485 635 475 b 675 332 672 408 675 361 l 704 324 b 726 633 707 428 718 567 l 697 629 b 678 547 692 603 685 568 b 385 528 633 533 453 528 l 385 558 b 396 931 385 663 389 911 b 738 865 465 931 688 913 b 744 756 742 839 744 778 l 776 744 b 800 1086 778 847 789 1022 l 768 1079 b 750 981 764 1049 754 997 b 310 972 721 972 369 972 b 67 978 256 972 115 975 l 72 949 b 219 929 114 944 201 938 b 226 542 224 890 226 667 z "},"g":{"ha":1257,"x_min":0,"x_max":0,"o":"m 1075 232 b 1081 386 1075 271 1076 363 b 1201 401 1111 393 1189 400 l 1208 431 b 990 426 1192 428 1057 426 b 763 431 942 426 835 428 l 771 401 b 911 386 797 396 883 389 b 917 275 915 361 917 318 l 917 201 b 913 64 917 132 915 85 b 736 28 854 33 772 28 b 243 544 436 28 243 318 b 646 946 243 767 404 946 b 1007 811 872 946 971 854 b 1022 683 1013 779 1019 731 l 1054 667 b 1074 1096 1050 796 1065 1042 l 1042 1089 b 1017 960 1038 1060 1022 982 b 706 994 971 976 825 994 b 297 882 564 994 424 968 b 78 463 175 799 78 658 b 354 44 78 289 179 132 b 722 -22 471 -14 632 -22 b 1078 24 817 -22 997 0 b 1075 188 1075 63 1075 136 z "},"h":{"ha":1346,"x_min":0,"x_max":0,"o":"m 226 447 b 219 43 226 342 225 108 b 75 24 193 38 107 25 l 67 -6 b 311 0 108 -3 239 0 b 538 -6 371 0 508 -3 l 531 24 b 396 43 503 25 433 35 b 385 414 390 94 385 272 l 385 463 b 961 494 404 467 896 493 l 961 414 b 953 43 961 267 961 90 b 815 24 928 38 836 25 l 808 -6 b 1046 0 856 -3 986 0 b 1279 -6 1111 0 1253 -3 l 1272 24 b 1132 43 1244 25 1160 38 b 1119 481 1122 90 1119 319 l 1119 578 b 1129 929 1119 615 1122 901 b 1271 949 1169 935 1243 946 l 1279 978 b 1047 972 1254 975 1138 972 b 808 978 961 972 832 975 l 815 949 b 953 929 856 946 929 935 b 961 608 961 894 961 717 l 961 544 b 385 540 906 535 419 540 l 385 608 b 396 929 385 728 390 892 b 531 949 418 935 492 946 l 538 978 b 311 972 515 975 397 972 b 67 978 222 972 90 975 l 74 949 b 219 929 108 946 194 935 b 226 578 225 883 226 622 z "},"i":{"ha":611,"x_min":0,"x_max":0,"o":"m 385 569 b 392 929 385 740 386 901 b 538 949 442 935 510 946 l 544 978 b 331 972 521 975 401 972 b 67 978 221 972 93 975 l 74 949 b 219 929 100 946 192 935 b 226 576 225 882 226 622 l 226 494 b 219 43 226 358 225 101 b 72 24 190 38 96 25 l 67 -6 b 283 0 108 -3 236 0 b 544 -6 369 0 514 -3 l 538 24 b 392 43 510 26 426 35 b 385 483 386 71 385 303 z "},"j":{"ha":582,"x_min":0,"x_max":0,"o":"m 385 571 b 392 929 385 601 386 886 b 540 949 440 935 517 946 l 544 978 b 304 972 497 975 379 972 b 31 978 228 972 64 975 l 36 949 b 219 929 76 946 186 935 b 232 569 231 857 232 622 l 232 474 b 199 -82 232 163 219 -10 b 51 -331 183 -139 160 -215 l 81 -340 b 319 -104 231 -226 285 -164 b 385 176 379 -1 385 61 l 385 497 z "},"k":{"ha":1111,"x_min":0,"x_max":0,"o":"m 226 489 b 219 43 226 290 224 104 b 72 24 186 35 106 26 l 67 -6 b 304 0 107 -3 239 0 b 553 -6 379 0 526 -3 l 550 24 b 392 50 529 26 428 35 b 385 417 386 101 385 296 l 385 450 b 472 522 403 467 446 503 b 1088 -40 511 481 979 1 l 1135 -25 b 608 631 1063 42 663 544 b 985 932 667 683 925 900 b 1076 949 1021 942 1056 946 l 1085 978 b 933 972 1038 975 974 972 b 722 978 879 972 781 975 l 728 949 b 831 929 758 944 799 938 b 385 513 790 861 475 592 l 385 556 b 392 929 385 669 386 885 b 533 949 424 935 517 946 l 539 978 b 311 972 513 975 363 972 b 67 978 254 972 94 975 l 71 949 b 219 929 104 946 186 935 b 226 568 224 892 226 699 z "},"l":{"ha":818,"x_min":0,"x_max":0,"o":"m 226 510 b 219 43 226 372 225 104 b 72 24 190 33 93 25 l 67 -6 b 303 0 106 -3 233 0 b 708 -8 378 0 678 -6 b 701 -171 708 -46 701 -151 l 733 -178 b 807 279 753 8 779 156 l 774 274 b 724 115 763 235 744 163 b 392 44 671 81 557 44 b 385 524 386 75 385 342 l 385 574 b 392 929 385 685 386 885 b 556 949 447 935 522 946 l 563 978 b 307 972 535 975 400 972 b 67 978 222 972 101 975 l 71 949 b 219 929 107 946 189 935 b 226 590 225 885 226 669 z "},"m":{"ha":1472,"x_min":0,"x_max":0,"o":"m 1008 -6 b 1265 0 1049 -3 1201 0 b 1461 -6 1331 0 1414 -3 l 1454 24 b 1339 43 1429 28 1374 35 b 1157 929 1315 131 1183 774 b 1274 949 1186 936 1254 946 l 1278 978 b 1085 972 1246 975 1129 972 b 897 978 1036 972 942 975 l 904 949 b 999 929 929 944 972 939 b 715 243 996 897 756 322 b 463 929 672 349 503 803 b 567 949 489 935 528 944 l 572 978 b 364 972 533 975 424 972 b 164 978 290 972 182 975 l 172 949 b 310 929 188 946 272 935 b 107 42 289 815 138 129 b 8 24 76 33 32 28 l -1 -6 b 153 0 44 -3 115 0 b 360 -6 179 0 340 -3 l 354 24 b 231 43 333 26 256 38 b 343 821 225 222 307 608 l 349 821 b 665 -11 365 768 626 75 b 1018 819 707 68 981 735 l 1024 819 b 1164 40 1040 717 1161 92 b 1011 24 1136 38 1031 25 z "},"n":{"ha":1261,"x_min":0,"x_max":0,"o":"m 61 943 b 214 926 114 940 182 933 b 175 43 214 881 199 101 b 60 24 143 33 99 29 l 56 -6 b 244 0 96 -3 204 0 b 450 -6 281 0 425 -3 l 446 24 b 294 43 419 26 315 36 b 264 850 276 93 260 822 b 593 454 310 797 574 475 b 1051 -69 625 418 1010 -31 b 1075 635 1060 -14 1071 569 b 1101 929 1078 679 1085 875 b 1207 949 1139 935 1189 946 l 1213 978 b 1038 972 1183 975 1068 972 b 831 978 1007 972 857 975 l 838 949 b 978 929 876 946 950 935 b 1007 215 1006 857 1007 369 b 706 560 963 253 742 521 b 372 982 682 585 403 935 b 56 972 264 976 133 975 z "},"o":{"ha":1315,"x_min":0,"x_max":0,"o":"m 639 -22 b 1239 538 981 -22 1239 197 b 1071 882 1239 667 1181 801 b 686 994 950 971 833 994 b 76 469 303 994 76 744 b 210 133 76 339 108 238 b 639 -22 339 1 499 -22 z m 707 35 b 236 528 436 35 236 279 b 635 942 236 814 444 942 b 1069 436 865 942 1069 731 b 707 35 1069 214 906 35 z "},"p":{"ha":888,"x_min":0,"x_max":0,"o":"m 382 581 b 389 938 382 700 383 897 b 568 907 450 938 522 929 b 681 718 639 872 681 803 b 463 446 681 508 513 458 l 458 411 b 750 547 508 418 658 456 b 846 768 806 603 846 674 b 710 939 846 803 833 888 b 375 979 642 967 526 979 b 67 978 311 979 108 978 l 71 949 b 219 929 104 946 193 939 b 226 585 225 882 226 629 l 226 529 b 219 43 226 400 225 104 b 72 24 183 36 93 26 l 67 -6 b 307 0 106 -3 238 0 b 572 -6 371 0 526 -3 l 565 24 b 389 43 522 28 422 38 b 382 522 383 83 382 404 z "},"q":{"ha":1314,"x_min":0,"x_max":0,"o":"m 1335 -314 b 951 51 1279 -278 1028 -64 b 1238 535 1118 146 1238 310 b 1111 844 1238 590 1228 731 b 681 994 1001 953 851 994 b 76 472 285 994 76 731 b 208 126 76 417 79 256 b 632 -22 332 3 506 -22 b 713 -18 658 -22 688 -19 b 774 -11 739 -15 761 -12 b 1303 -328 849 -78 1217 -312 z m 689 31 b 232 524 446 31 232 286 b 624 943 232 796 419 943 b 1074 463 858 943 1074 728 b 689 31 1074 232 938 31 z "},"r":{"ha":1039,"x_min":0,"x_max":0,"o":"m 225 501 b 218 43 225 356 224 83 b 71 24 179 33 90 25 l 65 -6 b 300 0 97 -3 243 0 b 539 -6 364 0 504 -3 l 533 24 b 388 43 503 26 411 36 b 381 411 383 107 381 321 l 381 447 b 514 456 404 447 461 451 b 1003 -44 536 426 906 0 l 1064 -35 b 681 517 919 118 696 482 b 876 779 788 576 876 692 b 757 938 876 856 831 908 b 365 976 663 975 497 976 l 65 975 l 69 946 b 218 929 100 943 194 935 b 225 586 224 903 225 636 z m 381 533 b 388 938 381 632 383 881 b 708 740 628 938 708 829 b 550 517 708 603 610 539 b 381 490 490 494 431 490 z "},"s":{"ha":767,"x_min":0,"x_max":0,"o":"m 119 -132 b 150 13 129 -81 143 -14 b 342 -22 189 -8 275 -22 b 683 281 531 -22 683 88 b 451 606 683 456 567 533 b 251 811 346 672 251 721 b 421 950 251 874 301 950 b 606 825 518 950 590 875 b 611 719 608 800 611 767 l 643 706 b 676 1086 643 819 657 949 l 644 1082 b 619 969 636 1044 629 1003 b 432 994 586 978 514 994 b 146 750 226 994 146 858 b 390 426 146 593 254 515 b 568 200 481 368 568 313 b 371 25 568 97 481 25 b 156 176 275 25 193 88 b 146 299 151 201 144 281 l 114 307 b 110 88 118 274 110 124 b 88 -140 110 33 90 -121 z "},"t":{"ha":1036,"x_min":0,"x_max":0,"o":"m 439 511 b 432 43 439 390 436 151 b 254 24 399 39 286 26 l 247 -6 b 517 0 288 -3 454 0 b 789 -6 593 0 756 -3 l 783 24 b 604 43 757 26 631 39 b 597 511 600 154 597 389 l 597 574 b 604 914 597 674 600 876 b 967 856 739 914 932 883 b 964 713 968 825 967 768 l 996 704 b 1040 1063 1000 746 1032 1031 l 1006 1057 b 986 971 1000 1031 992 988 b 522 957 964 967 724 957 b 74 971 335 957 96 967 b 65 1061 69 1000 67 1043 l 33 1067 b 13 717 35 957 18 783 l 44 725 b 72 856 53 771 61 825 b 432 914 110 879 210 914 b 439 574 436 882 439 676 z "},"u":{"ha":1190,"x_min":0,"x_max":0,"o":"m 182 399 b 601 -22 182 156 314 -22 b 892 75 739 -22 828 18 b 1028 460 999 169 1028 303 b 1025 631 1028 510 1025 576 l 1025 697 b 1032 929 1025 735 1028 908 b 1129 949 1068 938 1106 943 l 1138 978 b 968 972 1114 975 1040 972 b 743 978 882 972 778 975 l 753 949 b 904 929 789 946 872 935 b 911 585 910 883 911 629 l 911 457 b 818 97 911 290 893 168 b 618 31 771 53 710 31 b 343 425 468 31 343 131 l 343 610 b 350 929 343 729 346 906 b 494 949 394 938 457 944 l 501 978 b 296 972 467 975 360 972 b 61 978 189 972 100 975 l 65 949 b 175 929 103 943 146 936 b 182 615 179 890 182 740 z "},"v":{"ha":1038,"x_min":0,"x_max":0,"o":"m -37 949 b 49 929 7 942 31 935 b 521 -61 117 835 476 17 b 1021 929 539 -17 992 913 b 1106 949 1057 938 1079 943 l 1113 978 b 957 972 1079 975 1022 972 b 754 978 872 972 774 975 l 761 949 b 889 929 806 942 863 935 b 578 197 861 782 610 261 b 260 929 542 242 269 882 b 390 949 283 938 361 946 l 397 978 b 157 972 367 975 243 972 b -43 978 79 972 1 975 z "},"w":{"ha":1464,"x_min":0,"x_max":0,"o":"m -32 949 b 72 929 10 942 39 938 b 396 -72 147 764 347 44 b 728 758 471 100 681 639 b 1060 -72 768 643 1022 8 b 1418 929 1074 -25 1378 886 b 1507 949 1442 938 1476 944 l 1511 978 b 1331 972 1468 975 1411 972 b 1149 978 1247 972 1178 975 l 1156 949 b 1286 929 1201 942 1246 938 b 1094 211 1278 794 1113 274 l 1092 211 b 839 893 1046 328 869 814 b 950 915 865 904 908 908 l 954 944 b 756 939 921 942 842 939 b 558 944 675 939 611 942 l 565 915 b 701 893 589 911 661 901 b 453 219 671 764 469 267 l 450 219 b 257 929 425 283 271 868 b 383 949 290 935 364 944 l 390 978 b 167 972 358 975 285 972 b -37 978 60 972 1 975 z "},"x":{"ha":985,"x_min":0,"x_max":0,"o":"m 1000 -50 b 561 568 900 81 642 458 b 875 929 604 622 850 921 b 961 949 897 935 935 942 l 964 978 b 819 972 929 975 878 972 b 639 978 744 972 671 975 l 644 949 b 743 929 663 946 719 938 b 531 611 708 858 571 664 b 314 929 497 649 332 893 b 432 949 342 936 379 943 l 440 978 b 219 972 383 975 293 972 b 7 978 94 972 24 975 l 11 949 b 101 929 40 943 76 938 b 431 497 165 863 332 622 b 67 43 385 439 124 78 b -21 24 40 32 7 28 l -31 -6 b 121 0 4 -3 43 0 b 328 -6 200 0 306 -6 l 324 24 b 208 43 299 26 239 36 b 464 453 261 153 426 411 b 942 -64 525 383 749 82 z "},"y":{"ha":908,"x_min":0,"x_max":0,"o":"m 397 306 b 390 43 397 217 396 64 b 268 24 358 35 294 26 l 261 -6 b 451 0 300 -3 401 0 b 700 -6 546 0 671 -3 l 697 24 b 563 43 671 28 579 39 b 556 301 557 78 556 264 l 556 354 b 561 453 556 388 557 429 b 897 929 581 514 867 919 b 992 949 926 938 971 944 l 996 978 b 828 972 964 975 892 972 b 653 978 751 972 674 975 l 657 949 b 765 929 675 946 736 936 b 525 508 761 872 547 549 b 258 929 482 582 340 785 b 378 949 290 936 353 943 l 385 978 b 193 972 365 975 272 972 b -49 978 67 972 -25 975 l -43 949 b 54 929 -15 943 36 938 b 393 442 118 869 382 478 b 397 350 397 406 397 369 z "},"z":{"ha":997,"x_min":0,"x_max":0,"o":"m 906 307 b 847 126 896 272 865 150 b 272 50 775 67 444 43 b 936 964 346 163 860 868 b 539 957 850 960 568 957 b 188 969 504 957 217 964 b 183 1099 186 990 185 1061 l 151 1106 b 107 690 147 1046 138 824 l 139 694 b 189 856 147 718 175 819 b 708 915 231 894 614 918 b 38 -8 664 835 107 65 b 417 0 161 -4 357 0 b 836 -17 544 0 819 -7 b 829 -150 836 -43 831 -124 l 861 -160 b 938 315 867 -89 931 275 z "},"{":{"ha":486,"x_min":0,"x_max":0,"o":"m 431 -143 b 254 60 357 -129 239 -110 l 275 300 b 150 504 282 379 247 461 b 268 683 185 529 271 571 l 264 879 b 421 1044 261 1007 347 1042 l 428 1083 b 135 853 222 1065 135 974 b 151 626 135 807 151 654 b 53 524 151 558 126 524 l 42 492 b 160 371 132 478 160 440 b 122 61 160 324 122 106 b 413 -178 122 -103 286 -167 z "},"|":{"ha":390,"x_min":0,"x_max":0,"o":"m 242 -361 l 242 1088 l 150 1088 l 150 -361 z "},"}":{"ha":486,"x_min":0,"x_max":0,"o":"m 74 -178 b 364 61 200 -167 364 -103 b 326 371 364 106 326 324 b 444 492 326 440 354 478 l 433 524 b 335 626 360 524 335 558 b 351 853 335 654 351 807 b 58 1083 351 974 264 1065 l 65 1044 b 222 879 139 1042 225 1007 l 218 683 b 336 504 215 571 301 529 b 211 300 239 461 204 379 l 232 60 b 56 -143 247 -110 129 -129 z "},"~":{"ha":847,"x_min":0,"x_max":0,"o":"m 732 508 l 703 533 b 585 458 675 508 625 460 b 438 501 547 457 472 488 b 269 554 404 514 306 554 b 111 429 210 554 144 472 l 142 404 b 261 479 164 425 228 479 b 408 431 286 479 383 440 b 574 383 443 418 536 383 b 732 508 636 382 696 464 z "},"¡":{"ha":500,"x_min":0,"x_max":0,"o":"m 253 693 b 150 -22 244 579 171 72 b 342 1 219 -11 265 -6 b 308 710 325 101 307 636 z m 193 975 l 201 828 l 350 846 l 346 994 z "},"¢":{"ha":786,"x_min":0,"x_max":0,"o":"m 493 742 b 632 654 567 738 617 688 b 640 571 635 640 640 597 l 672 568 b 690 857 669 656 681 808 l 658 853 b 643 775 656 838 646 788 b 497 792 624 778 575 792 b 519 1004 501 863 510 933 l 444 982 b 440 789 447 951 447 878 b 232 722 371 785 306 772 b 99 464 157 672 99 582 b 397 174 99 319 196 199 b 368 -61 388 58 378 -32 l 442 -47 b 450 169 442 26 443 97 b 693 218 586 165 668 200 l 703 272 b 456 229 646 232 525 211 z m 401 239 b 246 521 317 275 246 378 b 439 740 246 640 315 731 z "},"£":{"ha":743,"x_min":0,"x_max":0,"o":"m 690 238 b 656 94 681 196 663 117 b 376 72 636 89 510 72 l 224 72 b 338 307 276 129 338 207 b 325 463 338 364 326 440 l 517 463 l 536 528 b 321 506 508 518 342 506 b 304 750 311 599 304 701 b 449 950 304 769 283 950 b 618 840 549 950 604 869 b 626 736 621 821 626 767 l 658 728 b 689 1097 657 839 668 989 l 657 1096 b 629 963 651 1063 635 983 b 467 994 613 965 563 994 b 167 707 211 994 167 818 b 181 503 167 625 175 563 l 60 501 l 44 444 b 183 463 88 457 147 463 b 204 190 192 407 204 288 b 82 25 204 79 133 29 l 65 -6 b 267 0 101 -3 222 0 b 644 -25 311 0 615 -8 b 651 -136 649 -67 650 -108 l 683 -144 b 722 247 688 -22 715 210 z "},"⁄":{"ha":450,"x_min":0,"x_max":0,"o":"m 547 1028 l 490 1060 l -97 -81 l -43 -114 z "},"¥":{"ha":778,"x_min":0,"x_max":0,"o":"m 668 311 b 468 301 613 311 518 301 l 468 378 l 671 378 l 688 431 b 468 419 635 431 515 419 l 468 456 b 749 936 507 544 718 918 b 828 947 779 942 810 946 l 831 978 b 693 972 803 975 743 972 b 519 978 619 972 536 975 l 526 947 b 640 936 553 946 610 939 b 442 511 638 885 469 560 b 222 936 390 593 267 844 b 329 947 240 938 303 946 l 338 978 b 140 972 314 975 235 972 b -25 978 69 972 8 975 l -21 947 b 60 936 11 944 32 942 b 344 443 114 871 322 481 l 344 419 l 150 419 l 135 367 b 344 378 210 371 297 378 l 344 301 l 143 301 l 128 250 b 344 260 204 254 297 260 l 344 232 b 338 44 344 144 343 63 b 224 24 306 36 253 26 l 215 -6 b 404 0 257 -3 354 0 b 603 -6 447 0 571 -3 l 600 24 b 475 44 574 26 506 39 b 468 229 468 78 468 190 l 468 260 l 653 260 z "},"ƒ":{"ha":617,"x_min":0,"x_max":0,"o":"m 201 -222 b 289 421 225 -94 269 308 l 503 421 l 519 481 b 293 463 481 474 317 463 b 350 847 306 581 313 739 b 475 951 374 917 421 951 b 594 865 521 951 575 922 b 603 742 597 838 603 788 l 635 733 b 665 1103 633 853 643 1003 l 633 1097 b 606 979 628 1068 611 997 b 483 994 586 985 539 994 b 157 463 194 994 172 706 l 29 463 l 18 410 b 154 421 51 415 113 421 b 128 -256 149 332 139 -133 z "},"§":{"ha":681,"x_min":0,"x_max":0,"o":"m 275 836 b 386 939 275 901 340 939 b 521 847 444 939 493 900 l 525 753 l 563 750 b 592 1024 563 881 585 982 l 551 1019 b 532 968 549 1006 536 982 b 436 996 496 983 472 996 b 182 874 325 996 256 950 b 60 581 119 808 60 701 b 190 319 60 458 118 375 b 328 207 233 286 283 242 b 421 74 403 147 421 125 b 304 -19 421 17 363 -19 b 156 47 257 -19 193 0 b 149 151 154 85 149 136 l 107 156 b 93 -146 110 111 100 -85 l 135 -139 b 147 -65 142 -103 143 -86 b 268 -89 169 -76 229 -89 b 635 364 482 -89 635 171 b 508 611 635 468 589 549 b 331 744 446 660 388 699 b 275 836 299 769 275 794 z m 135 643 b 189 803 135 703 151 760 l 194 801 b 265 647 189 735 224 685 b 433 521 301 617 386 557 b 558 282 532 444 558 383 b 506 128 558 219 532 165 l 501 129 b 440 261 501 194 471 233 b 260 413 407 292 328 358 b 135 643 171 483 135 544 z "},"¤":{"ha":664,"x_min":0,"x_max":0,"o":"m 611 239 l 521 319 b 583 482 556 357 583 425 b 524 644 583 540 561 607 l 608 721 l 553 775 l 476 681 b 332 733 435 718 382 733 b 192 681 288 733 229 714 l 113 775 l 57 721 l 146 644 b 83 482 110 607 83 540 b 142 318 83 411 114 351 l 53 239 l 108 185 l 189 281 b 332 231 231 246 288 231 b 475 281 375 231 432 246 l 556 185 z m 332 674 b 492 482 421 674 492 585 b 332 288 492 376 421 288 b 174 482 243 288 174 376 b 332 674 174 574 235 674 z "},"'":{"ha":206,"x_min":0,"x_max":0,"o":"m 124 658 b 171 994 138 769 156 892 l 35 1010 b 82 650 54 901 69 783 z "},"“":{"ha":486,"x_min":0,"x_max":0,"o":"m 85 1044 b 103 690 94 919 97 799 l 226 722 b 122 1043 182 814 139 938 z m 261 1044 b 279 690 271 919 274 799 l 403 722 b 299 1043 358 814 315 938 z "},"«":{"ha":750,"x_min":0,"x_max":0,"o":"m 390 386 b 225 515 365 401 274 469 b 385 671 267 557 344 635 l 371 721 b 110 506 347 696 157 544 b 369 286 129 490 349 308 z m 640 386 b 475 515 615 401 524 469 b 635 671 517 557 594 635 l 621 721 b 360 506 597 696 407 544 b 619 286 379 490 599 308 z "},"‹":{"ha":500,"x_min":0,"x_max":0,"o":"m 390 386 b 225 515 365 401 274 469 b 385 671 267 557 344 635 l 371 721 b 110 506 347 696 157 544 b 369 286 129 490 349 308 z "},"›":{"ha":500,"x_min":0,"x_max":0,"o":"m 110 621 b 276 492 135 606 228 536 b 115 336 235 450 156 372 l 129 286 b 390 501 153 311 343 463 b 131 721 371 517 151 699 z "},"ﬁ":{"ha":1494,"x_min":0,"x_max":0,"o":"m 226 456 b 219 43 226 301 224 75 b 72 24 181 32 89 26 l 67 -6 b 299 0 115 -3 219 0 b 554 -6 392 0 506 -3 l 549 24 b 396 43 517 26 449 32 b 385 443 389 82 385 328 l 385 485 b 668 450 464 485 635 475 b 675 332 672 408 675 361 l 704 324 b 726 633 707 428 718 567 l 697 629 b 678 547 692 603 685 568 b 385 528 633 533 453 528 l 385 558 b 396 931 385 663 389 911 b 738 865 465 931 688 913 b 744 756 742 839 744 778 l 776 744 b 800 1086 778 847 789 1022 l 768 1079 b 750 981 764 1049 754 997 b 310 972 721 972 369 972 b 186 974 283 972 235 974 b 67 978 139 975 92 976 l 72 949 b 219 929 114 944 201 938 b 226 542 224 890 226 667 z m 1268 569 b 1275 929 1268 740 1269 901 b 1421 949 1325 935 1393 946 l 1428 978 b 1214 972 1404 975 1285 972 b 950 978 1104 972 976 975 l 957 949 b 1103 929 983 946 1075 935 b 1110 576 1108 882 1110 622 l 1110 494 b 1103 43 1110 358 1108 101 b 956 24 1074 38 979 25 l 950 -6 b 1167 0 992 -3 1119 0 b 1428 -6 1253 0 1397 -3 l 1421 24 b 1275 43 1393 26 1310 35 b 1268 483 1269 71 1268 303 z "},"ﬂ":{"ha":1701,"x_min":0,"x_max":0,"o":"m 226 456 b 219 43 226 301 224 75 b 72 24 181 32 89 26 l 67 -6 b 299 0 115 -3 219 0 b 554 -6 392 0 506 -3 l 549 24 b 396 43 517 26 449 32 b 385 443 389 82 385 328 l 385 485 b 668 450 464 485 635 475 b 675 332 672 408 675 361 l 704 324 b 726 633 707 428 718 567 l 697 629 b 678 547 692 603 685 568 b 385 528 633 533 453 528 l 385 558 b 396 931 385 663 389 911 b 738 865 465 931 688 913 b 744 756 742 839 744 778 l 776 744 b 800 1086 778 847 789 1022 l 768 1079 b 750 981 764 1049 754 997 b 310 972 721 972 369 972 b 186 974 283 972 235 974 b 67 978 139 975 92 976 l 72 949 b 219 929 114 944 201 938 b 226 542 224 890 226 667 z m 1110 510 b 1103 43 1110 372 1108 104 b 956 24 1074 33 976 25 l 950 -6 b 1186 0 989 -3 1117 0 b 1592 -8 1261 0 1561 -6 b 1585 -171 1592 -46 1585 -151 l 1617 -178 b 1690 279 1636 8 1663 156 l 1657 274 b 1607 115 1646 235 1628 163 b 1275 44 1554 81 1440 44 b 1268 524 1269 75 1268 342 l 1268 574 b 1275 929 1268 685 1269 885 b 1439 949 1331 935 1406 946 l 1446 978 b 1190 972 1418 975 1283 972 b 950 978 1106 972 985 975 l 954 949 b 1103 929 990 946 1072 935 b 1110 590 1108 885 1110 669 z "},"–":{"ha":694,"x_min":0,"x_max":0,"o":"m 11 556 l 0 453 b 429 472 119 467 288 472 b 683 467 561 472 667 468 l 694 556 z "},"†":{"ha":660,"x_min":0,"x_max":0,"o":"m 294 -124 l 356 -124 b 356 81 353 -71 354 22 b 367 654 364 292 364 422 b 610 638 468 654 519 647 l 622 726 l 368 717 b 383 982 368 800 375 863 l 261 972 b 279 717 274 853 278 797 l 49 724 l 38 632 b 281 653 115 642 208 653 b 294 81 285 413 288 290 b 294 -124 296 24 296 -71 z "},"‡":{"ha":660,"x_min":0,"x_max":0,"o":"m 610 376 l 622 465 l 364 456 b 367 654 365 517 365 582 b 610 638 457 654 521 647 l 622 726 l 368 717 b 383 982 368 800 375 863 l 261 972 b 279 717 274 853 278 797 l 49 722 l 38 632 b 281 653 115 642 189 653 b 285 456 282 581 283 515 l 49 463 l 38 371 b 286 392 104 379 196 392 b 293 79 289 286 289 201 b 293 -124 294 21 294 -71 l 356 -124 b 356 79 353 -71 354 21 b 363 393 360 201 361 285 b 610 376 454 393 533 385 z "},"·":{"ha":444,"x_min":0,"x_max":0,"o":"m 307 453 l 300 601 l 139 571 l 143 422 z "},"¶":{"ha":731,"x_min":0,"x_max":0,"o":"m 424 -87 b 281 -150 364 -114 325 -131 l 276 -187 b 501 -110 346 -157 421 -135 b 714 -56 560 -92 643 -72 l 707 -29 b 625 -35 674 -32 651 -33 b 618 381 618 100 618 242 l 618 535 b 626 929 618 717 622 911 b 733 943 649 935 701 940 l 739 971 b 576 972 706 971 632 971 l 432 972 b 18 665 235 974 18 890 b 383 338 18 422 196 361 l 381 383 b 263 622 331 393 263 444 b 424 928 263 828 333 913 b 428 554 428 864 428 601 l 428 392 b 424 -87 428 229 429 71 z m 554 932 b 561 554 558 882 561 603 l 561 392 b 557 -50 561 229 563 104 b 493 -64 536 -54 514 -58 b 485 381 486 76 485 243 l 485 535 b 493 931 485 710 489 901 b 554 932 519 932 551 932 z "},"•":{"ha":542,"x_min":0,"x_max":0,"o":"m 143 574 l 181 361 l 399 431 l 350 638 z "},"‚":{"ha":319,"x_min":0,"x_max":0,"o":"m 106 -171 b 243 142 146 -71 200 50 l 124 186 b 68 -168 122 72 107 -46 z "},"„":{"ha":486,"x_min":0,"x_max":0,"o":"m 110 -171 b 247 142 150 -71 204 50 l 128 186 b 72 -168 126 72 111 -46 z m 278 -171 b 415 142 318 -71 372 50 l 296 186 b 240 -168 294 72 279 -46 z "},"”":{"ha":486,"x_min":0,"x_max":0,"o":"m 110 688 b 247 1000 150 788 204 908 l 128 1044 b 72 690 125 931 110 813 z m 278 688 b 415 1000 318 788 372 908 l 296 1044 b 240 690 294 931 279 813 z "},"»":{"ha":750,"x_min":0,"x_max":0,"o":"m 360 621 b 526 492 385 606 478 535 b 365 336 485 450 406 372 l 379 286 b 640 501 403 311 593 463 b 381 721 621 518 401 699 z m 110 621 b 276 492 135 606 228 535 b 115 336 235 450 156 372 l 129 286 b 390 501 153 311 343 463 b 131 721 371 518 151 699 z "},"…":{"ha":1389,"x_min":0,"x_max":0,"o":"m 771 1 l 765 139 l 613 111 l 618 -28 z m 1233 1 l 1228 139 l 1075 111 l 1081 -28 z m 308 1 l 303 139 l 150 111 l 156 -28 z "},"‰":{"ha":1561,"x_min":0,"x_max":0,"o":"m 406 733 b 297 567 406 606 338 567 b 175 767 193 567 175 714 b 286 935 175 890 232 935 b 406 733 390 935 406 778 z m 278 526 b 511 768 403 526 511 633 b 303 972 511 899 440 972 b 69 732 168 972 69 863 b 278 526 69 599 144 526 z m 313 0 b 582 511 360 100 508 383 b 874 975 649 628 826 921 l 764 972 b 542 575 761 947 589 658 b 201 -8 483 472 247 53 z m 760 0 b 993 240 886 0 993 104 b 785 444 993 374 921 444 b 551 206 650 444 551 335 b 760 0 551 74 628 0 z m 781 40 b 657 240 675 40 657 194 b 768 407 657 364 714 407 b 888 208 874 407 888 244 b 781 40 888 79 819 40 z m 1258 0 b 1492 240 1385 0 1492 104 b 1283 444 1492 374 1419 444 b 1050 206 1149 444 1050 335 b 1258 0 1050 74 1126 0 z m 1279 40 b 1156 240 1174 40 1156 194 b 1267 407 1156 364 1213 407 b 1386 208 1372 407 1386 244 b 1279 40 1386 79 1318 40 z "},"¿":{"ha":847,"x_min":0,"x_max":0,"o":"m 460 740 b 410 518 444 657 425 556 b 274 435 361 488 326 475 b 107 176 204 382 107 299 b 454 -22 107 72 207 -22 b 654 7 521 -22 606 -12 b 661 -144 658 -35 660 -92 l 693 -156 b 718 265 693 -42 701 132 l 686 256 b 656 125 676 196 667 153 b 463 25 631 83 567 25 b 279 221 333 25 279 140 b 390 444 279 283 286 365 b 551 535 457 494 489 507 b 518 754 542 608 524 681 z m 393 975 l 401 839 l 556 861 l 554 994 z "},"`":{"ha":1274,"x_min":0,"x_max":0,"o":"m 389 1179 b 701 1067 419 1182 678 1078 l 718 1111 b 443 1286 704 1114 488 1256 z "},"´":{"ha":1274,"x_min":0,"x_max":0,"o":"m 832 1286 b 557 1111 788 1256 571 1114 l 574 1067 b 885 1179 596 1078 854 1182 z "},"ˆ":{"ha":1274,"x_min":0,"x_max":0,"o":"m 479 1072 b 626 1164 497 1086 592 1149 b 793 1072 656 1149 778 1081 l 819 1106 b 629 1274 793 1126 683 1225 b 453 1104 606 1246 485 1132 z "},"˜":{"ha":1274,"x_min":0,"x_max":0,"o":"m 819 1211 b 744 1168 793 1165 763 1168 b 621 1203 704 1168 660 1188 b 522 1233 582 1218 551 1233 b 415 1106 481 1233 428 1142 l 454 1097 b 536 1147 481 1142 511 1147 b 644 1115 560 1147 603 1132 b 750 1085 681 1100 721 1085 b 858 1203 796 1085 844 1163 z "},"¯":{"ha":1274,"x_min":0,"x_max":0,"o":"m 469 1201 l 456 1111 b 811 1147 479 1126 788 1147 l 819 1201 z "},"˘":{"ha":1274,"x_min":0,"x_max":0,"o":"m 813 1256 b 639 1189 792 1229 732 1189 b 464 1256 553 1189 490 1222 l 438 1233 b 628 1107 461 1181 522 1107 b 836 1233 740 1107 806 1183 z "},"˙":{"ha":1274,"x_min":0,"x_max":0,"o":"m 538 1146 l 654 1067 l 736 1172 l 618 1256 z "},"¨":{"ha":1274,"x_min":0,"x_max":0,"o":"m 401 1138 l 506 1067 l 575 1174 l 468 1246 z m 699 1140 l 801 1068 l 872 1174 l 767 1246 z "},"˚":{"ha":1274,"x_min":0,"x_max":0,"o":"m 617 1074 b 797 1199 732 1074 797 1147 b 644 1288 797 1249 751 1288 b 476 1164 568 1288 476 1233 b 617 1074 476 1106 539 1074 z m 554 1188 b 632 1260 554 1231 597 1260 b 715 1175 686 1260 715 1214 b 642 1101 715 1131 681 1101 b 554 1188 603 1101 554 1133 z "},"¸":{"ha":1274,"x_min":0,"x_max":0,"o":"m 654 0 l 544 -135 b 653 -235 621 -156 654 -192 b 513 -318 654 -281 607 -321 l 500 -362 b 761 -218 606 -368 761 -324 b 638 -106 761 -161 710 -126 l 726 0 z "},"˝":{"ha":1274,"x_min":0,"x_max":0,"o":"m 618 1279 b 403 1103 579 1239 415 1111 l 421 1067 b 668 1197 442 1079 638 1185 z m 821 1279 b 603 1103 779 1240 617 1111 l 621 1067 b 871 1197 646 1082 840 1185 z "},"˛":{"ha":1274,"x_min":0,"x_max":0,"o":"m 643 0 b 497 -218 608 -21 497 -132 b 749 -319 497 -293 596 -333 l 761 -282 b 599 -175 732 -286 603 -279 b 688 0 594 -101 667 -21 z "},"ˇ":{"ha":1274,"x_min":0,"x_max":0,"o":"m 794 1274 b 647 1182 776 1260 682 1196 b 481 1274 618 1192 492 1265 l 454 1240 b 644 1072 481 1219 590 1115 b 819 1240 671 1100 790 1210 z "},"—":{"ha":1389,"x_min":0,"x_max":0,"o":"m 11 556 l 0 453 b 826 472 124 468 499 472 b 1378 467 1113 472 1363 468 l 1389 556 z "},"Æ":{"ha":1242,"x_min":0,"x_max":0,"o":"m 740 547 b 750 933 740 646 746 915 b 1064 875 790 933 1039 915 b 1064 775 1065 847 1064 785 l 1094 765 b 1122 1053 1097 808 1115 1024 l 1090 1047 b 1079 982 1088 1022 1083 999 b 650 972 1042 972 681 972 b 556 974 640 972 600 974 b 435 978 511 975 463 976 l 442 949 b 544 933 472 946 526 939 b -17 40 521 900 42 119 b -135 24 -43 36 -118 26 l -143 -6 b 13 0 -110 -3 -11 0 b 225 -6 38 0 194 -3 l 219 24 b 125 42 203 26 142 35 b 310 442 158 164 272 394 b 585 460 357 447 538 460 l 585 417 b 578 40 585 258 583 56 b 449 24 532 31 465 25 l 443 -6 b 649 0 490 -3 601 0 b 1071 -12 701 0 996 -6 b 1072 -97 1072 -35 1072 -60 l 1101 -103 b 1147 218 1107 -33 1138 178 l 1115 210 b 1085 88 1107 179 1100 136 b 750 40 1028 51 856 40 b 740 433 746 74 740 383 l 740 460 b 1013 431 826 460 969 453 b 1010 338 1013 403 1011 367 l 1036 326 b 1072 585 1043 371 1063 557 l 1043 582 b 1029 522 1039 563 1035 543 b 740 500 996 510 826 500 z m 585 500 b 344 506 561 500 381 496 b 575 894 389 590 558 863 l 582 893 b 585 546 585 867 585 682 z "},"ª":{"ha":639,"x_min":0,"x_max":0,"o":"m 365 538 b 483 542 385 539 463 542 b 614 538 519 542 596 539 l 613 564 b 551 574 592 567 571 569 b 458 765 525 615 479 718 b 385 942 431 831 390 926 b 436 949 400 944 418 947 l 439 976 b 314 972 401 975 332 972 b 214 976 292 972 235 975 l 214 949 b 260 942 231 947 250 944 b 89 574 263 931 117 600 b 33 564 71 569 54 567 l 32 538 b 122 542 50 540 97 542 b 229 538 142 542 199 539 l 226 564 b 174 574 204 567 189 569 b 214 703 179 608 208 692 b 374 714 242 704 344 717 b 435 574 383 697 426 593 b 369 564 418 569 393 567 z m 226 744 b 293 925 242 782 274 876 b 365 744 308 889 343 800 z "},"Ł":{"ha":822,"x_min":0,"x_max":0,"o":"m 75 949 b 224 929 111 946 193 935 b 231 590 229 892 231 669 l 231 513 b 86 474 188 497 132 483 b 82 411 86 449 83 425 b 231 463 126 426 207 454 l 231 431 b 224 43 231 307 229 97 b 76 24 194 35 97 25 l 71 -6 b 285 0 110 -3 238 0 b 713 -8 389 0 682 -6 b 706 -171 714 -46 706 -151 l 738 -178 b 811 278 756 -6 783 164 l 778 272 b 728 117 767 233 749 161 b 396 44 697 89 583 44 b 389 450 390 65 389 342 l 389 504 b 567 556 431 521 517 549 b 574 633 568 568 571 604 b 389 558 531 614 440 575 l 389 600 b 396 929 389 685 390 892 b 556 949 451 935 526 946 l 563 978 b 333 972 539 975 404 972 b 71 978 226 972 106 975 z "},"Ø":{"ha":1315,"x_min":0,"x_max":0,"o":"m 181 -39 b 279 74 219 8 249 39 b 639 -22 389 -4 522 -22 b 1239 538 981 -22 1239 197 b 1093 865 1239 660 1188 782 b 1231 983 1153 919 1210 969 l 1139 1006 b 1039 904 1110 974 1083 944 b 686 994 915 986 789 994 b 76 469 303 994 76 744 b 232 113 76 303 142 192 b 89 -22 178 54 119 4 z m 679 461 b 976 750 774 556 878 658 b 1069 436 1039 657 1069 549 b 707 35 1069 214 906 35 b 382 174 586 35 468 86 b 679 461 478 268 585 369 z m 940 799 b 632 497 844 701 729 589 b 344 218 538 407 443 311 b 236 528 283 299 236 406 b 635 942 236 814 444 942 b 940 799 746 942 858 889 z "},"Œ":{"ha":1542,"x_min":0,"x_max":0,"o":"m 1338 361 b 1374 619 1344 406 1364 594 l 1344 617 b 1331 557 1340 597 1336 578 b 1043 536 1297 544 1128 536 l 1043 560 b 1051 933 1043 646 1047 915 b 1365 875 1110 933 1340 915 b 1365 775 1367 847 1365 785 l 1396 765 b 1424 1053 1399 808 1417 1024 l 1392 1047 b 1381 982 1389 1022 1385 999 b 956 972 1343 972 1000 972 b 844 983 926 972 890 978 b 667 994 797 989 740 994 b 76 475 314 994 76 740 b 204 135 76 361 100 243 b 650 -22 335 0 504 -22 b 825 -11 722 -22 778 -17 b 954 0 872 -6 913 0 b 1372 -12 1004 0 1332 -6 b 1374 -97 1374 -35 1374 -60 l 1403 -103 b 1449 218 1408 -33 1439 178 l 1417 210 b 1386 88 1408 179 1401 129 b 1053 40 1322 51 1157 40 b 1043 469 1047 81 1043 383 l 1043 496 b 1314 467 1128 496 1278 488 b 1311 372 1314 439 1313 401 z m 885 472 b 879 69 885 301 882 86 b 699 36 840 46 775 36 b 232 529 450 36 232 278 b 633 938 232 808 428 938 b 876 883 788 938 868 892 b 885 575 881 833 885 701 z "},"º":{"ha":681,"x_min":0,"x_max":0,"o":"m 332 531 b 604 786 485 531 604 635 b 529 940 604 842 578 901 b 353 994 475 985 421 994 b 76 753 179 994 76 876 b 138 600 76 703 88 650 b 332 531 196 542 267 531 z m 350 574 b 189 779 264 574 189 683 b 326 953 189 901 267 953 b 485 740 422 953 485 851 b 350 574 485 651 433 574 z "},"æ":{"ha":1242,"x_min":0,"x_max":0,"o":"m 740 547 b 750 933 740 646 746 915 b 1064 875 790 933 1039 915 b 1064 775 1065 847 1064 785 l 1094 765 b 1122 1053 1097 808 1115 1024 l 1090 1047 b 1079 982 1088 1022 1083 999 b 650 972 1042 972 681 972 b 556 974 640 972 600 974 b 435 978 511 975 463 976 l 442 949 b 544 933 472 946 526 939 b -17 40 521 900 42 119 b -135 24 -43 36 -118 26 l -143 -6 b 13 0 -110 -3 -11 0 b 225 -6 38 0 194 -3 l 219 24 b 125 42 203 26 142 35 b 310 442 158 164 272 394 b 585 460 357 447 538 460 l 585 417 b 578 40 585 258 583 56 b 449 24 532 31 465 25 l 443 -6 b 649 0 490 -3 601 0 b 1071 -12 701 0 996 -6 b 1072 -97 1072 -35 1072 -60 l 1101 -103 b 1147 218 1107 -33 1138 178 l 1115 210 b 1085 88 1107 179 1100 136 b 750 40 1028 51 856 40 b 740 433 746 74 740 383 l 740 460 b 1013 431 826 460 969 453 b 1010 338 1013 403 1011 367 l 1036 326 b 1072 585 1043 371 1063 557 l 1043 582 b 1029 522 1039 563 1035 543 b 740 500 996 510 826 500 z m 585 500 b 344 506 561 500 381 496 b 575 894 389 590 558 863 l 582 893 b 585 546 585 867 585 682 z "},"ı":{"ha":611,"x_min":0,"x_max":0,"o":"m 385 569 b 392 929 385 740 386 901 b 538 949 442 935 510 946 l 544 978 b 331 972 521 975 401 972 b 67 978 221 972 93 975 l 74 949 b 219 929 100 946 192 935 b 226 576 225 882 226 622 l 226 494 b 219 43 226 358 225 101 b 72 24 190 38 96 25 l 67 -6 b 283 0 108 -3 236 0 b 544 -6 369 0 514 -3 l 538 24 b 392 43 510 26 426 35 b 385 483 386 71 385 303 z "},"ł":{"ha":822,"x_min":0,"x_max":0,"o":"m 75 949 b 224 929 111 946 193 935 b 231 590 229 892 231 669 l 231 513 b 86 474 188 497 132 483 b 82 411 86 449 83 425 b 231 463 126 426 207 454 l 231 431 b 224 43 231 307 229 97 b 76 24 194 35 97 25 l 71 -6 b 285 0 110 -3 238 0 b 713 -8 389 0 682 -6 b 706 -171 714 -46 706 -151 l 738 -178 b 811 278 756 -6 783 164 l 778 272 b 728 117 767 233 749 161 b 396 44 697 89 583 44 b 389 450 390 65 389 342 l 389 504 b 567 556 431 521 517 549 b 574 633 568 568 571 604 b 389 558 531 614 440 575 l 389 600 b 396 929 389 685 390 892 b 556 949 451 935 526 946 l 563 978 b 333 972 539 975 404 972 b 71 978 226 972 106 975 z "},"ø":{"ha":1315,"x_min":0,"x_max":0,"o":"m 181 -39 b 279 74 219 8 249 39 b 639 -22 389 -4 522 -22 b 1239 538 981 -22 1239 197 b 1093 865 1239 660 1188 782 b 1231 983 1153 919 1210 969 l 1139 1006 b 1039 904 1110 974 1083 944 b 686 994 915 986 789 994 b 76 469 303 994 76 744 b 232 113 76 303 142 192 b 89 -22 178 54 119 4 z m 679 461 b 976 750 774 556 878 658 b 1069 436 1039 657 1069 549 b 707 35 1069 214 906 35 b 382 174 586 35 468 86 b 679 461 478 268 585 369 z m 940 799 b 632 497 844 701 729 589 b 344 218 538 407 443 311 b 236 528 283 299 236 406 b 635 942 236 814 444 942 b 940 799 746 942 858 889 z "},"œ":{"ha":1542,"x_min":0,"x_max":0,"o":"m 1338 361 b 1374 619 1344 406 1364 594 l 1344 617 b 1331 557 1340 597 1336 578 b 1043 536 1297 544 1128 536 l 1043 560 b 1051 933 1043 646 1047 915 b 1365 875 1110 933 1340 915 b 1365 775 1367 847 1365 785 l 1396 765 b 1424 1053 1399 808 1417 1024 l 1392 1047 b 1381 982 1389 1022 1385 999 b 956 972 1343 972 1000 972 b 844 983 926 972 890 978 b 667 994 797 989 740 994 b 76 475 314 994 76 740 b 204 135 76 361 100 243 b 650 -22 335 0 504 -22 b 825 -11 722 -22 778 -17 b 954 0 872 -6 913 0 b 1372 -12 1004 0 1332 -6 b 1374 -97 1374 -35 1374 -60 l 1403 -103 b 1449 218 1408 -33 1439 178 l 1417 210 b 1386 88 1408 179 1401 129 b 1053 40 1322 51 1157 40 b 1043 469 1047 81 1043 383 l 1043 496 b 1314 467 1128 496 1278 488 b 1311 372 1314 439 1313 401 z m 885 472 b 879 69 885 301 882 86 b 699 36 840 46 775 36 b 232 529 450 36 232 278 b 633 938 232 808 428 938 b 876 883 788 938 868 892 b 885 575 881 833 885 701 z "},"ß":{"ha":1533,"x_min":0,"x_max":0,"o":"m 119 -132 b 150 13 129 -81 143 -14 b 342 -22 189 -8 275 -22 b 683 281 531 -22 683 88 b 451 606 683 456 567 533 b 251 811 346 672 251 721 b 421 950 251 874 301 950 b 606 825 518 950 590 875 b 611 719 608 800 611 767 l 643 706 b 676 1086 643 819 657 949 l 644 1082 b 619 969 636 1044 629 1003 b 432 994 586 978 514 994 b 146 750 226 994 146 858 b 390 426 146 593 254 515 b 568 200 481 368 568 313 b 371 25 568 97 481 25 b 156 176 275 25 193 88 b 146 299 151 201 144 281 l 114 307 b 110 88 118 274 110 124 b 88 -140 110 33 90 -121 z m 886 -132 b 917 13 896 -81 910 -14 b 1108 -22 956 -8 1042 -22 b 1450 281 1297 -22 1450 88 b 1218 606 1450 456 1333 533 b 1018 811 1113 672 1018 721 b 1188 950 1018 874 1068 950 b 1372 825 1285 950 1357 875 b 1378 719 1375 800 1378 767 l 1410 706 b 1443 1086 1410 819 1424 949 l 1411 1082 b 1386 969 1403 1044 1396 1003 b 1199 994 1353 978 1281 994 b 913 750 993 994 913 858 b 1157 426 913 593 1021 515 b 1335 200 1247 368 1335 313 b 1138 25 1335 97 1247 25 b 922 176 1042 25 960 88 b 913 299 918 201 911 281 l 881 307 b 876 88 885 274 876 124 b 854 -140 876 33 857 -121 z "},"¹":{"ha":500,"x_min":0,"x_max":0,"o":"m 203 682 b 196 447 203 601 203 483 b 60 432 178 443 81 435 l 57 403 b 257 408 81 404 210 408 b 439 403 297 408 415 404 l 433 432 b 317 447 415 435 335 443 b 307 697 313 472 307 590 l 307 743 b 321 994 307 835 317 960 b 56 922 254 972 96 932 l 71 896 b 199 910 124 903 168 908 b 203 736 204 882 203 774 z "},"¬":{"ha":847,"x_min":0,"x_max":0,"o":"m 108 588 l 97 500 b 417 519 194 511 296 518 b 675 517 508 521 583 521 b 653 213 672 414 661 289 l 747 224 b 747 588 743 310 743 508 z "},"µ":{"ha":838,"x_min":0,"x_max":0,"o":"m 228 60 b 381 -17 263 15 331 -17 b 547 89 461 -17 507 35 b 661 -17 564 44 590 -17 b 799 49 704 -17 760 18 l 785 86 b 663 151 710 44 663 65 l 663 613 l 536 593 l 536 143 b 401 64 508 106 467 64 b 274 232 340 64 274 131 l 274 456 b 267 613 274 503 272 579 l 139 592 b 146 436 144 543 146 486 l 146 -19 b 142 -332 146 -233 140 -300 b 281 -361 186 -347 281 -361 l 283 -353 b 228 60 257 -265 229 -67 z "},"™":{"ha":644,"x_min":0,"x_max":0,"o":"m 361 908 b 440 743 372 888 432 758 b 518 901 450 761 506 872 b 535 833 521 890 528 861 b 547 769 542 806 546 778 l 518 764 l 518 749 b 575 751 536 750 558 751 b 635 749 589 751 615 750 l 632 764 l 603 769 b 558 946 593 797 567 913 l 585 947 l 590 965 b 535 964 567 964 547 964 b 476 965 522 964 500 964 l 479 947 l 507 944 b 453 828 501 929 465 850 b 400 946 443 850 407 928 l 428 947 l 432 965 b 369 964 407 964 385 964 b 310 965 354 964 335 964 l 310 947 l 344 943 b 324 856 342 931 332 893 b 303 769 314 817 306 779 l 271 764 l 268 749 b 317 751 283 750 304 751 b 375 749 326 751 358 750 l 375 764 l 342 769 b 361 908 347 814 358 892 z m 272 943 b 282 988 275 963 278 981 l 260 985 l 257 965 b 150 964 246 964 197 964 b 50 967 106 964 60 965 l 47 988 l 28 988 b 24 897 29 963 25 919 l 44 900 l 49 931 b 122 940 57 935 71 940 l 122 865 b 119 769 122 840 122 794 l 81 764 l 81 749 b 149 751 110 750 126 751 b 221 749 169 751 192 750 l 221 764 l 178 769 b 178 860 176 792 178 838 l 178 938 b 250 929 210 936 240 935 l 250 899 l 268 894 b 272 943 268 901 269 924 z "},"Ð":{"ha":1306,"x_min":0,"x_max":0,"o":"m 661 544 b 385 533 569 532 442 533 l 385 558 b 394 919 385 651 390 900 b 506 926 424 925 468 926 b 913 825 678 926 808 906 b 1065 507 1025 738 1065 622 b 554 51 1065 199 803 51 b 394 76 529 51 450 57 b 385 460 389 125 385 388 l 385 486 b 646 478 450 485 533 482 z m 75 472 b 226 485 131 482 178 483 l 226 453 b 217 43 226 314 224 67 b 72 24 183 33 99 25 l 67 -6 b 490 -3 100 -4 431 -3 b 1236 585 1006 -3 1236 285 b 1008 915 1236 713 1171 839 b 617 978 919 957 778 978 b 314 972 528 978 363 972 b 67 978 238 972 88 975 l 69 949 b 217 929 103 946 181 936 b 226 585 224 901 226 647 l 226 533 b 90 535 183 533 140 531 z "},"½":{"ha":1201,"x_min":0,"x_max":0,"o":"m 913 1011 l 860 1044 l 215 -62 l 264 -100 z m 175 682 b 168 447 175 601 175 483 b 32 432 150 443 53 435 l 29 403 b 229 408 53 404 182 408 b 411 403 269 408 388 404 l 406 432 b 289 447 388 435 307 443 b 279 697 285 472 279 590 l 279 743 b 293 994 279 835 289 960 b 28 922 226 972 68 932 l 43 896 b 171 910 96 903 140 908 b 175 736 176 882 175 774 z m 1121 -65 b 1150 178 1125 -4 1135 117 l 1122 175 l 1097 97 b 899 68 1068 81 996 68 l 824 68 l 824 71 b 963 175 869 101 917 136 b 1126 438 1078 274 1126 356 b 910 586 1126 524 1054 586 b 794 574 865 586 817 579 l 788 622 l 763 629 b 746 400 763 561 753 482 l 774 406 l 794 521 b 876 540 808 532 847 540 b 1010 401 944 540 1010 488 b 863 151 1010 301 933 217 b 693 0 807 101 754 50 l 1089 0 l 1094 -60 z "},"±":{"ha":847,"x_min":0,"x_max":0,"o":"m 476 821 l 382 810 b 388 575 385 736 389 661 l 115 575 l 104 488 b 386 507 189 497 279 504 b 368 246 383 394 378 333 l 463 257 b 456 507 458 333 454 418 b 732 501 560 508 629 510 l 743 575 l 457 575 b 476 821 460 682 467 736 z m 732 114 l 743 188 l 414 188 l 115 188 l 104 100 b 414 119 189 111 307 118 b 732 114 518 122 629 124 z "},"Þ":{"ha":901,"x_min":0,"x_max":0,"o":"m 379 581 b 382 735 379 633 381 699 b 581 692 471 732 539 717 b 681 522 632 663 681 607 b 449 288 681 358 549 304 l 444 247 b 750 371 529 258 654 288 b 846 575 813 426 846 490 b 710 742 846 601 836 692 b 382 778 614 779 457 778 l 386 929 b 533 949 428 935 503 946 l 540 978 b 308 972 501 975 379 972 b 67 978 229 972 97 975 l 74 949 b 219 929 108 946 200 935 b 226 585 225 885 226 635 l 226 519 b 219 43 226 400 225 104 b 74 24 190 36 93 26 l 67 -6 b 307 0 106 -3 238 0 b 561 -6 367 0 524 -3 l 554 24 b 382 43 518 28 414 38 b 379 522 379 82 379 404 z "},"¼":{"ha":1201,"x_min":0,"x_max":0,"o":"m 890 172 l 890 143 b 886 36 890 106 889 60 b 754 25 861 35 768 26 l 751 -3 b 919 0 776 -1 889 0 b 1094 -3 964 0 1075 -1 l 1090 25 b 993 36 1072 26 1007 33 b 989 146 990 54 989 99 l 989 172 b 1079 168 1025 172 1054 172 b 1086 115 1082 160 1085 133 l 1114 111 b 1129 321 1111 235 1125 288 l 1101 319 b 1081 239 1094 293 1089 263 b 989 225 1065 231 1021 225 l 989 261 b 996 615 989 376 992 585 b 574 172 886 506 678 274 z m 890 225 l 675 224 b 890 458 758 314 843 408 z m 935 1011 l 882 1044 l 236 -62 l 285 -97 z m 197 682 b 190 447 197 601 197 483 b 54 432 172 443 75 435 l 51 403 b 251 408 75 404 204 408 b 433 403 292 408 410 404 l 428 432 b 311 447 410 435 329 443 b 301 697 307 472 301 590 l 301 743 b 315 994 301 835 311 960 b 50 922 249 972 90 932 l 65 896 b 193 910 118 903 163 908 b 197 736 199 882 197 774 z "},"÷":{"ha":847,"x_min":0,"x_max":0,"o":"m 486 211 l 479 333 l 347 308 l 351 186 z m 486 657 l 479 779 l 347 754 l 351 632 z m 114 511 l 103 424 b 424 443 200 435 303 442 b 732 438 535 444 621 447 l 743 511 z "},"¦":{"ha":390,"x_min":0,"x_max":0,"o":"m 242 471 l 242 976 l 150 976 l 150 471 z m 242 -253 l 242 253 l 150 253 l 150 -253 z "},"°":{"ha":518,"x_min":0,"x_max":0,"o":"m 261 924 b 56 722 144 924 56 840 b 260 522 56 596 149 522 b 463 722 371 522 463 596 b 261 924 463 839 375 924 z m 257 865 b 385 719 342 865 385 797 b 261 579 385 639 336 579 b 135 722 188 579 135 644 b 257 865 135 808 188 865 z "},"þ":{"ha":901,"x_min":0,"x_max":0,"o":"m 379 581 b 382 735 379 633 381 699 b 581 692 471 732 539 717 b 681 522 632 663 681 607 b 449 288 681 358 549 304 l 444 247 b 750 371 529 258 654 288 b 846 575 813 426 846 490 b 710 742 846 601 836 692 b 382 778 614 779 457 778 l 386 929 b 533 949 428 935 503 946 l 540 978 b 308 972 501 975 379 972 b 67 978 229 972 97 975 l 74 949 b 219 929 108 946 200 935 b 226 585 225 885 226 635 l 226 519 b 219 43 226 400 225 104 b 74 24 190 36 93 26 l 67 -6 b 307 0 106 -3 238 0 b 561 -6 367 0 524 -3 l 554 24 b 382 43 518 28 414 38 b 379 522 379 82 379 404 z "},"¾":{"ha":1201,"x_min":0,"x_max":0,"o":"m 901 172 l 901 143 b 897 36 901 106 900 60 b 765 25 872 35 779 26 l 763 -3 b 931 0 788 -1 900 0 b 1106 -3 975 0 1086 -1 l 1101 25 b 1004 36 1083 26 1018 33 b 1000 146 1001 54 1000 99 l 1000 172 b 1090 168 1036 172 1065 172 b 1097 115 1093 160 1096 133 l 1125 111 b 1140 321 1122 235 1136 288 l 1113 319 b 1092 239 1106 293 1100 263 b 1000 225 1076 231 1032 225 l 1000 261 b 1007 615 1000 376 1003 585 b 585 172 897 506 689 274 z m 901 225 l 686 224 b 901 458 769 314 854 408 z m 246 983 b 124 988 192 983 144 983 l 124 1054 l 96 1067 b 76 839 90 957 85 885 l 107 846 l 121 897 b 222 911 147 907 182 911 l 335 911 b 182 725 300 867 208 758 b 363 568 265 713 363 663 b 206 442 363 488 300 442 b 108 476 175 442 139 449 l 108 543 l 82 553 b 60 369 76 483 71 414 l 86 372 l 100 404 b 185 397 131 399 156 397 b 367 444 251 397 315 413 b 471 618 438 490 471 553 b 278 772 471 685 404 746 b 464 983 310 819 418 936 z m 946 1011 l 893 1044 l 247 -62 l 297 -97 z "},"²":{"ha":569,"x_min":0,"x_max":0,"o":"m 475 343 b 504 586 479 404 489 525 l 476 583 l 451 506 b 253 476 422 489 350 476 l 178 476 l 178 479 b 317 583 224 510 271 544 b 481 846 432 682 481 764 b 264 994 481 932 408 994 b 199 990 242 994 218 993 b 149 982 178 988 160 985 l 142 1031 l 117 1038 b 100 808 117 969 107 890 l 128 814 l 149 929 b 231 949 163 940 201 949 b 364 810 299 949 364 896 b 217 560 364 710 288 625 b 47 408 161 510 108 458 l 443 408 l 449 349 z "},"®":{"ha":533,"x_min":0,"x_max":0,"o":"m 496 782 b 267 992 496 897 397 992 b 38 782 136 992 38 897 b 267 575 38 667 136 575 b 496 782 397 575 496 667 z m 454 778 b 272 601 454 675 371 601 b 81 786 171 601 81 683 b 263 964 81 889 161 964 b 454 778 364 964 454 881 z m 318 849 b 283 797 318 818 296 801 b 239 794 267 790 250 793 l 239 890 b 318 849 303 890 318 867 z m 381 668 l 397 674 b 311 793 378 699 319 779 b 364 858 340 808 364 836 b 333 897 364 878 351 890 b 292 906 321 901 307 906 b 231 907 275 907 256 907 l 163 907 l 165 890 l 194 886 l 194 811 l 194 792 l 194 690 l 163 683 l 160 668 b 278 668 196 669 240 669 l 275 683 l 243 689 b 240 767 242 706 240 746 l 240 772 l 261 775 b 381 668 271 765 367 676 z "},"−":{"ha":847,"x_min":0,"x_max":0,"o":"m 115 511 l 104 424 b 418 443 201 435 297 442 b 732 438 529 444 621 447 l 743 511 z "},"ð":{"ha":1306,"x_min":0,"x_max":0,"o":"m 661 544 b 385 533 569 532 442 533 l 385 558 b 394 919 385 651 390 900 b 506 926 424 925 468 926 b 913 825 678 926 808 906 b 1065 507 1025 738 1065 622 b 554 51 1065 199 803 51 b 394 76 529 51 450 57 b 385 460 389 125 385 388 l 385 486 b 646 478 450 485 533 482 z m 75 472 b 226 485 131 482 178 483 l 226 453 b 217 43 226 314 224 67 b 72 24 183 33 99 25 l 67 -6 b 490 -3 100 -4 431 -3 b 1236 585 1006 -3 1236 285 b 1008 915 1236 713 1171 839 b 617 978 919 957 778 978 b 314 972 528 978 363 972 b 67 978 238 972 88 975 l 69 949 b 217 929 103 946 181 936 b 226 585 224 901 226 647 l 226 533 b 90 535 183 533 140 531 z "},"×":{"ha":847,"x_min":0,"x_max":0,"o":"m 136 693 b 382 481 203 640 304 554 l 126 232 l 181 171 b 422 444 247 250 347 372 b 665 176 486 383 614 233 l 722 251 b 463 482 654 306 544 404 b 717 704 540 556 650 651 l 657 771 l 422 518 b 193 768 361 578 243 714 z "},"³":{"ha":583,"x_min":0,"x_max":0,"o":"m 271 983 b 149 988 217 983 169 983 l 149 1054 l 121 1067 b 101 839 115 957 110 885 l 132 846 l 146 897 b 247 911 172 907 207 911 l 360 911 b 207 725 325 867 233 758 b 388 568 290 713 388 663 b 231 442 388 488 325 442 b 133 476 200 442 164 449 l 133 543 l 107 553 b 85 369 101 483 96 414 l 111 372 l 125 404 b 210 397 156 399 181 397 b 392 444 276 397 340 413 b 496 618 463 490 496 553 b 303 772 496 685 429 746 b 489 983 335 819 443 936 z "},"©":{"ha":1167,"x_min":0,"x_max":0,"o":"m 1111 476 b 583 985 1111 742 896 985 b 56 476 282 985 56 758 b 583 -32 56 194 282 -32 b 1111 476 885 -32 1111 194 z m 822 289 b 656 235 774 257 711 235 b 410 499 524 235 410 336 b 606 724 410 608 471 724 b 753 644 681 724 733 678 b 758 563 754 613 758 574 l 783 558 l 800 796 l 776 793 b 760 739 774 779 765 754 b 624 765 740 749 682 765 b 415 707 564 765 486 757 b 293 457 329 646 293 551 b 451 219 293 363 347 271 b 613 186 515 188 596 186 b 808 238 726 186 788 224 z m 578 933 b 1036 474 815 933 1036 728 b 590 19 1036 219 819 19 b 136 485 353 19 136 231 b 578 933 136 739 340 933 z "},"Á":{"ha":989,"x_min":0,"x_max":0,"o":"m 586 -6 b 821 0 624 -3 781 0 b 1051 -6 894 0 1035 -3 l 1047 24 b 925 43 1006 29 965 35 b 736 506 861 165 775 399 b 590 931 683 651 607 869 b 696 949 622 939 660 944 l 700 978 b 463 972 660 975 521 972 b 282 978 439 972 324 975 l 283 949 b 393 931 317 944 363 939 b 47 43 374 878 97 131 b -72 24 10 35 -32 28 l -76 -6 b 85 0 -44 -3 49 0 b 294 -6 125 0 251 -3 l 289 24 b 169 43 250 28 204 33 b 267 432 183 150 258 413 b 588 450 318 440 539 450 b 733 43 610 410 708 115 b 593 24 690 33 642 28 z m 578 492 l 286 497 b 433 907 300 543 390 783 l 436 907 b 578 492 460 831 547 583 z m 690 1286 b 415 1111 646 1256 429 1114 l 432 1067 b 743 1179 454 1078 713 1182 z "},"Â":{"ha":989,"x_min":0,"x_max":0,"o":"m 586 -6 b 821 0 624 -3 781 0 b 1051 -6 894 0 1035 -3 l 1047 24 b 925 43 1006 29 965 35 b 736 506 861 165 775 399 b 590 931 683 651 607 869 b 696 949 622 939 660 944 l 700 978 b 463 972 660 975 521 972 b 282 978 439 972 324 975 l 283 949 b 393 931 317 944 363 939 b 47 43 374 878 97 131 b -72 24 10 35 -32 28 l -76 -6 b 85 0 -44 -3 49 0 b 294 -6 125 0 251 -3 l 289 24 b 169 43 250 28 204 33 b 267 432 183 150 258 413 b 588 450 318 440 539 450 b 733 43 610 410 708 115 b 593 24 690 33 642 28 z m 578 492 l 286 497 b 433 907 300 543 390 783 l 436 907 b 578 492 460 831 547 583 z m 338 1072 b 485 1164 356 1086 450 1149 b 651 1072 514 1149 636 1081 l 678 1106 b 488 1274 651 1126 542 1225 b 311 1104 464 1246 343 1132 z "},"Ä":{"ha":989,"x_min":0,"x_max":0,"o":"m 586 -6 b 821 0 624 -3 781 0 b 1051 -6 894 0 1035 -3 l 1047 24 b 925 43 1006 29 965 35 b 736 506 861 165 775 399 b 590 931 683 651 607 869 b 696 949 622 939 660 944 l 700 978 b 463 972 660 975 521 972 b 282 978 439 972 324 975 l 283 949 b 393 931 317 944 363 939 b 47 43 374 878 97 131 b -72 24 10 35 -32 28 l -76 -6 b 85 0 -44 -3 49 0 b 294 -6 125 0 251 -3 l 289 24 b 169 43 250 28 204 33 b 267 432 183 150 258 413 b 588 450 318 440 539 450 b 733 43 610 410 708 115 b 593 24 690 33 642 28 z m 578 492 l 286 497 b 433 907 300 543 390 783 l 436 907 b 578 492 460 831 547 583 z m 260 1138 l 364 1067 l 433 1174 l 326 1246 z m 557 1140 l 660 1068 l 731 1174 l 625 1246 z "},"À":{"ha":989,"x_min":0,"x_max":0,"o":"m 586 -6 b 821 0 624 -3 781 0 b 1051 -6 894 0 1035 -3 l 1047 24 b 925 43 1006 29 965 35 b 736 506 861 165 775 399 b 590 931 683 651 607 869 b 696 949 622 939 660 944 l 700 978 b 463 972 660 975 521 972 b 282 978 439 972 324 975 l 283 949 b 393 931 317 944 363 939 b 47 43 374 878 97 131 b -72 24 10 35 -32 28 l -76 -6 b 85 0 -44 -3 49 0 b 294 -6 125 0 251 -3 l 289 24 b 169 43 250 28 204 33 b 267 432 183 150 258 413 b 588 450 318 440 539 450 b 733 43 610 410 708 115 b 593 24 690 33 642 28 z m 578 492 l 286 497 b 433 907 300 543 390 783 l 436 907 b 578 492 460 831 547 583 z m 247 1179 b 560 1067 278 1182 536 1078 l 576 1111 b 301 1286 563 1114 346 1256 z "},"Å":{"ha":989,"x_min":0,"x_max":0,"o":"m 586 -6 b 821 0 624 -3 781 0 b 1051 -6 894 0 1035 -3 l 1047 24 b 925 43 1006 29 965 35 b 736 506 861 165 775 399 b 590 931 683 651 607 869 b 696 949 622 939 660 944 l 700 978 b 463 972 660 975 521 972 b 282 978 439 972 324 975 l 283 949 b 393 931 317 944 363 939 b 47 43 374 878 97 131 b -72 24 10 35 -32 28 l -76 -6 b 85 0 -44 -3 49 0 b 294 -6 125 0 251 -3 l 289 24 b 169 43 250 28 204 33 b 267 432 183 150 258 413 b 588 450 318 440 539 450 b 733 43 610 410 708 115 b 593 24 690 33 642 28 z m 578 492 l 286 497 b 433 907 300 543 390 783 l 436 907 b 578 492 460 831 547 583 z m 475 1074 b 656 1199 590 1074 656 1147 b 503 1288 656 1249 610 1288 b 335 1164 426 1288 335 1233 b 475 1074 335 1106 397 1074 z m 413 1188 b 490 1260 413 1231 456 1260 b 574 1175 544 1260 574 1214 b 500 1101 574 1131 539 1101 b 413 1188 461 1101 413 1133 z "},"Ã":{"ha":989,"x_min":0,"x_max":0,"o":"m 586 -6 b 821 0 624 -3 781 0 b 1051 -6 894 0 1035 -3 l 1047 24 b 925 43 1006 29 965 35 b 736 506 861 165 775 399 b 590 931 683 651 607 869 b 696 949 622 939 660 944 l 700 978 b 463 972 660 975 521 972 b 282 978 439 972 324 975 l 283 949 b 393 931 317 944 363 939 b 47 43 374 878 97 131 b -72 24 10 35 -32 28 l -76 -6 b 85 0 -44 -3 49 0 b 294 -6 125 0 251 -3 l 289 24 b 169 43 250 28 204 33 b 267 432 183 150 258 413 b 588 450 318 440 539 450 b 733 43 610 410 708 115 b 593 24 690 33 642 28 z m 578 492 l 286 497 b 433 907 300 543 390 783 l 436 907 b 578 492 460 831 547 583 z m 678 1211 b 603 1168 651 1165 621 1168 b 479 1203 563 1168 518 1188 b 381 1233 440 1218 410 1233 b 274 1106 339 1233 286 1142 l 313 1097 b 394 1147 339 1142 369 1147 b 503 1115 418 1147 461 1132 b 608 1085 539 1100 579 1085 b 717 1203 654 1085 703 1163 z "},"Ç":{"ha":1124,"x_min":0,"x_max":0,"o":"m 633 -21 b 679 -22 653 -22 668 -22 b 1069 61 897 -22 1038 35 l 1089 121 b 760 46 990 63 865 46 b 243 546 467 46 243 275 b 656 946 243 763 403 946 b 990 785 835 946 964 846 b 999 669 994 761 999 696 l 1031 660 b 1061 1089 1032 792 1040 936 l 1029 1082 b 1000 958 1025 1065 1008 976 b 710 994 961 969 832 994 b 296 879 569 994 440 976 b 76 464 174 797 76 656 b 364 39 76 286 183 128 b 567 -15 428 7 504 -8 l 469 -135 b 578 -235 546 -156 578 -192 b 438 -318 578 -281 532 -321 l 425 -362 b 686 -218 531 -368 686 -324 b 563 -106 686 -161 635 -126 z "},"É":{"ha":885,"x_min":0,"x_max":0,"o":"m 226 476 b 217 43 226 324 222 68 b 74 24 179 33 96 25 l 67 -6 b 278 0 121 -3 231 0 b 714 -12 365 0 674 -6 b 715 -97 715 -35 715 -60 l 744 -103 b 790 218 750 -33 781 178 l 758 210 b 728 88 750 179 743 136 b 394 40 664 51 533 40 b 385 468 390 81 385 383 l 385 496 b 656 465 504 496 613 488 b 653 372 656 438 654 401 l 679 361 b 715 621 686 406 711 596 l 686 618 b 672 558 683 599 679 579 b 385 536 639 546 504 536 l 385 564 b 394 933 385 646 390 914 b 707 875 468 933 682 915 b 707 775 708 847 707 785 l 738 765 b 765 1053 740 808 758 1024 l 733 1047 b 722 982 731 1022 726 999 b 314 972 685 972 358 972 b 192 974 283 972 238 974 b 67 978 146 975 100 976 l 72 949 b 217 929 106 944 190 935 b 226 540 222 886 226 665 z m 638 1286 b 363 1111 593 1256 376 1114 l 379 1067 b 690 1179 401 1078 660 1182 z "},"Ê":{"ha":885,"x_min":0,"x_max":0,"o":"m 226 476 b 217 43 226 324 222 68 b 74 24 179 33 96 25 l 67 -6 b 278 0 121 -3 231 0 b 714 -12 365 0 674 -6 b 715 -97 715 -35 715 -60 l 744 -103 b 790 218 750 -33 781 178 l 758 210 b 728 88 750 179 743 136 b 394 40 664 51 533 40 b 385 468 390 81 385 383 l 385 496 b 656 465 504 496 613 488 b 653 372 656 438 654 401 l 679 361 b 715 621 686 406 711 596 l 686 618 b 672 558 683 599 679 579 b 385 536 639 546 504 536 l 385 564 b 394 933 385 646 390 914 b 707 875 468 933 682 915 b 707 775 708 847 707 785 l 738 765 b 765 1053 740 808 758 1024 l 733 1047 b 722 982 731 1022 726 999 b 314 972 685 972 358 972 b 192 974 283 972 238 974 b 67 978 146 975 100 976 l 72 949 b 217 929 106 944 190 935 b 226 540 222 886 226 665 z m 285 1072 b 432 1164 303 1086 397 1149 b 599 1072 461 1149 583 1081 l 625 1106 b 435 1274 599 1126 489 1225 b 258 1104 411 1246 290 1132 z "},"Ë":{"ha":885,"x_min":0,"x_max":0,"o":"m 226 476 b 217 43 226 324 222 68 b 74 24 179 33 96 25 l 67 -6 b 278 0 121 -3 231 0 b 714 -12 365 0 674 -6 b 715 -97 715 -35 715 -60 l 744 -103 b 790 218 750 -33 781 178 l 758 210 b 728 88 750 179 743 136 b 394 40 664 51 533 40 b 385 468 390 81 385 383 l 385 496 b 656 465 504 496 613 488 b 653 372 656 438 654 401 l 679 361 b 715 621 686 406 711 596 l 686 618 b 672 558 683 599 679 579 b 385 536 639 546 504 536 l 385 564 b 394 933 385 646 390 914 b 707 875 468 933 682 915 b 707 775 708 847 707 785 l 738 765 b 765 1053 740 808 758 1024 l 733 1047 b 722 982 731 1022 726 999 b 314 972 685 972 358 972 b 192 974 283 972 238 974 b 67 978 146 975 100 976 l 72 949 b 217 929 106 944 190 935 b 226 540 222 886 226 665 z m 207 1138 l 311 1067 l 381 1174 l 274 1246 z m 504 1140 l 607 1068 l 678 1174 l 572 1246 z "},"È":{"ha":885,"x_min":0,"x_max":0,"o":"m 226 476 b 217 43 226 324 222 68 b 74 24 179 33 96 25 l 67 -6 b 278 0 121 -3 231 0 b 714 -12 365 0 674 -6 b 715 -97 715 -35 715 -60 l 744 -103 b 790 218 750 -33 781 178 l 758 210 b 728 88 750 179 743 136 b 394 40 664 51 533 40 b 385 468 390 81 385 383 l 385 496 b 656 465 504 496 613 488 b 653 372 656 438 654 401 l 679 361 b 715 621 686 406 711 596 l 686 618 b 672 558 683 599 679 579 b 385 536 639 546 504 536 l 385 564 b 394 933 385 646 390 914 b 707 875 468 933 682 915 b 707 775 708 847 707 785 l 738 765 b 765 1053 740 808 758 1024 l 733 1047 b 722 982 731 1022 726 999 b 314 972 685 972 358 972 b 192 974 283 972 238 974 b 67 978 146 975 100 976 l 72 949 b 217 929 106 944 190 935 b 226 540 222 886 226 665 z m 236 1179 b 549 1067 267 1182 525 1078 l 565 1111 b 290 1286 551 1114 335 1256 z "},"Í":{"ha":611,"x_min":0,"x_max":0,"o":"m 385 569 b 392 929 385 740 386 901 b 538 949 442 935 510 946 l 544 978 b 331 972 521 975 401 972 b 67 978 221 972 93 975 l 74 949 b 219 929 100 946 192 935 b 226 576 225 882 226 622 l 226 494 b 219 43 226 358 225 101 b 72 24 190 38 96 25 l 67 -6 b 283 0 108 -3 236 0 b 544 -6 369 0 514 -3 l 538 24 b 392 43 510 26 426 35 b 385 483 386 71 385 303 z m 501 1286 b 226 1111 457 1256 240 1114 l 243 1067 b 554 1179 265 1078 524 1182 z "},"Î":{"ha":611,"x_min":0,"x_max":0,"o":"m 385 569 b 392 929 385 740 386 901 b 538 949 442 935 510 946 l 544 978 b 331 972 521 975 401 972 b 67 978 221 972 93 975 l 74 949 b 219 929 100 946 192 935 b 226 576 225 882 226 622 l 226 494 b 219 43 226 358 225 101 b 72 24 190 38 96 25 l 67 -6 b 283 0 108 -3 236 0 b 544 -6 369 0 514 -3 l 538 24 b 392 43 510 26 426 35 b 385 483 386 71 385 303 z m 149 1072 b 296 1164 167 1086 261 1149 b 463 1072 325 1149 447 1081 l 489 1106 b 299 1274 463 1126 353 1225 b 122 1104 275 1246 154 1132 z "},"Ï":{"ha":611,"x_min":0,"x_max":0,"o":"m 385 569 b 392 929 385 740 386 901 b 538 949 442 935 510 946 l 544 978 b 331 972 521 975 401 972 b 67 978 221 972 93 975 l 74 949 b 219 929 100 946 192 935 b 226 576 225 882 226 622 l 226 494 b 219 43 226 358 225 101 b 72 24 190 38 96 25 l 67 -6 b 283 0 108 -3 236 0 b 544 -6 369 0 514 -3 l 538 24 b 392 43 510 26 426 35 b 385 483 386 71 385 303 z m 71 1138 l 175 1067 l 244 1174 l 138 1246 z m 368 1140 l 471 1068 l 542 1174 l 436 1246 z "},"Ì":{"ha":611,"x_min":0,"x_max":0,"o":"m 385 569 b 392 929 385 740 386 901 b 538 949 442 935 510 946 l 544 978 b 331 972 521 975 401 972 b 67 978 221 972 93 975 l 74 949 b 219 929 100 946 192 935 b 226 576 225 882 226 622 l 226 494 b 219 43 226 358 225 101 b 72 24 190 38 96 25 l 67 -6 b 283 0 108 -3 236 0 b 544 -6 369 0 514 -3 l 538 24 b 392 43 510 26 426 35 b 385 483 386 71 385 303 z m 58 1179 b 371 1067 89 1182 347 1078 l 388 1111 b 113 1286 374 1114 157 1256 z "},"Ñ":{"ha":1261,"x_min":0,"x_max":0,"o":"m 61 943 b 214 926 114 940 182 933 b 175 43 214 881 199 101 b 60 24 143 33 99 29 l 56 -6 b 244 0 96 -3 204 0 b 450 -6 281 0 425 -3 l 446 24 b 294 43 419 26 315 36 b 264 850 276 93 260 822 b 593 454 310 797 574 475 b 1051 -69 625 418 1010 -31 b 1075 635 1060 -14 1071 569 b 1101 929 1078 679 1085 875 b 1207 949 1139 935 1189 946 l 1213 978 b 1038 972 1183 975 1068 972 b 831 978 1007 972 857 975 l 838 949 b 978 929 876 946 950 935 b 1007 215 1006 857 1007 369 b 706 560 963 253 742 521 b 372 982 682 585 403 935 b 56 972 264 976 133 975 z m 856 1211 b 781 1168 829 1165 799 1168 b 657 1203 740 1168 696 1188 b 558 1233 618 1218 588 1233 b 451 1106 517 1233 464 1142 l 490 1097 b 572 1147 517 1142 547 1147 b 681 1115 596 1147 639 1132 b 786 1085 717 1100 757 1085 b 894 1203 832 1085 881 1163 z "},"Ó":{"ha":1315,"x_min":0,"x_max":0,"o":"m 639 -22 b 1239 538 981 -22 1239 197 b 1071 882 1239 667 1181 801 b 686 994 950 971 833 994 b 76 469 303 994 76 744 b 210 133 76 339 108 238 b 639 -22 339 1 499 -22 z m 707 35 b 236 528 436 35 236 279 b 635 942 236 814 444 942 b 1069 436 865 942 1069 731 b 707 35 1069 214 906 35 z m 853 1286 b 578 1111 808 1256 592 1114 l 594 1067 b 906 1179 617 1078 875 1182 z "},"Ô":{"ha":1315,"x_min":0,"x_max":0,"o":"m 639 -22 b 1239 538 981 -22 1239 197 b 1071 882 1239 667 1181 801 b 686 994 950 971 833 994 b 76 469 303 994 76 744 b 210 133 76 339 108 238 b 639 -22 339 1 499 -22 z m 707 35 b 236 528 436 35 236 279 b 635 942 236 814 444 942 b 1069 436 865 942 1069 731 b 707 35 1069 214 906 35 z m 514 1072 b 661 1164 532 1086 626 1149 b 828 1072 690 1149 813 1081 l 854 1106 b 664 1274 828 1126 718 1225 b 488 1104 640 1246 519 1132 z "},"Ö":{"ha":1315,"x_min":0,"x_max":0,"o":"m 639 -22 b 1239 538 981 -22 1239 197 b 1071 882 1239 667 1181 801 b 686 994 950 971 833 994 b 76 469 303 994 76 744 b 210 133 76 339 108 238 b 639 -22 339 1 499 -22 z m 707 35 b 236 528 436 35 236 279 b 635 942 236 814 444 942 b 1069 436 865 942 1069 731 b 707 35 1069 214 906 35 z m 422 1138 l 526 1067 l 596 1174 l 489 1246 z m 719 1140 l 822 1068 l 893 1174 l 788 1246 z "},"Ò":{"ha":1315,"x_min":0,"x_max":0,"o":"m 639 -22 b 1239 538 981 -22 1239 197 b 1071 882 1239 667 1181 801 b 686 994 950 971 833 994 b 76 469 303 994 76 744 b 210 133 76 339 108 238 b 639 -22 339 1 499 -22 z m 707 35 b 236 528 436 35 236 279 b 635 942 236 814 444 942 b 1069 436 865 942 1069 731 b 707 35 1069 214 906 35 z m 410 1179 b 722 1067 440 1182 699 1078 l 739 1111 b 464 1286 725 1114 508 1256 z "},"Õ":{"ha":1315,"x_min":0,"x_max":0,"o":"m 639 -22 b 1239 538 981 -22 1239 197 b 1071 882 1239 667 1181 801 b 686 994 950 971 833 994 b 76 469 303 994 76 744 b 210 133 76 339 108 238 b 639 -22 339 1 499 -22 z m 707 35 b 236 528 436 35 236 279 b 635 942 236 814 444 942 b 1069 436 865 942 1069 731 b 707 35 1069 214 906 35 z m 840 1211 b 765 1168 814 1165 783 1168 b 642 1203 725 1168 681 1188 b 543 1233 603 1218 572 1233 b 436 1106 501 1233 449 1142 l 475 1097 b 557 1147 501 1142 532 1147 b 665 1115 581 1147 624 1132 b 771 1085 701 1100 742 1085 b 879 1203 817 1085 865 1163 z "},"Š":{"ha":767,"x_min":0,"x_max":0,"o":"m 119 -132 b 150 13 129 -81 143 -14 b 342 -22 189 -8 275 -22 b 683 281 531 -22 683 88 b 451 606 683 456 567 533 b 251 811 346 672 251 721 b 421 950 251 874 301 950 b 606 825 518 950 590 875 b 611 719 608 800 611 767 l 643 706 b 676 1086 643 819 657 949 l 644 1082 b 619 969 636 1044 629 1003 b 432 994 586 978 514 994 b 146 750 226 994 146 858 b 390 426 146 593 254 515 b 568 200 481 368 568 313 b 371 25 568 97 481 25 b 156 176 275 25 193 88 b 146 299 151 201 144 281 l 114 307 b 110 88 118 274 110 124 b 88 -140 110 33 90 -121 z m 568 1274 b 421 1182 550 1260 456 1196 b 254 1274 392 1192 265 1265 l 228 1240 b 418 1072 254 1219 364 1115 b 593 1240 444 1100 564 1210 z "},"Ú":{"ha":1190,"x_min":0,"x_max":0,"o":"m 182 399 b 601 -22 182 156 314 -22 b 892 75 739 -22 828 18 b 1028 460 999 169 1028 303 b 1025 631 1028 510 1025 576 l 1025 697 b 1032 929 1025 735 1028 908 b 1129 949 1068 938 1106 943 l 1138 978 b 968 972 1114 975 1040 972 b 743 978 882 972 778 975 l 753 949 b 904 929 789 946 872 935 b 911 585 910 883 911 629 l 911 457 b 818 97 911 290 893 168 b 618 31 771 53 710 31 b 343 425 468 31 343 131 l 343 610 b 350 929 343 729 346 906 b 494 949 394 938 457 944 l 501 978 b 296 972 467 975 360 972 b 61 978 189 972 100 975 l 65 949 b 175 929 103 943 146 936 b 182 615 179 890 182 740 z m 832 1286 b 557 1111 788 1256 571 1114 l 574 1067 b 885 1179 596 1078 854 1182 z "},"Û":{"ha":1190,"x_min":0,"x_max":0,"o":"m 182 399 b 601 -22 182 156 314 -22 b 892 75 739 -22 828 18 b 1028 460 999 169 1028 303 b 1025 631 1028 510 1025 576 l 1025 697 b 1032 929 1025 735 1028 908 b 1129 949 1068 938 1106 943 l 1138 978 b 968 972 1114 975 1040 972 b 743 978 882 972 778 975 l 753 949 b 904 929 789 946 872 935 b 911 585 910 883 911 629 l 911 457 b 818 97 911 290 893 168 b 618 31 771 53 710 31 b 343 425 468 31 343 131 l 343 610 b 350 929 343 729 346 906 b 494 949 394 938 457 944 l 501 978 b 296 972 467 975 360 972 b 61 978 189 972 100 975 l 65 949 b 175 929 103 943 146 936 b 182 615 179 890 182 740 z m 479 1072 b 626 1164 497 1086 592 1149 b 793 1072 656 1149 778 1081 l 819 1106 b 629 1274 793 1126 683 1225 b 453 1104 606 1246 485 1132 z "},"Ü":{"ha":1190,"x_min":0,"x_max":0,"o":"m 182 399 b 601 -22 182 156 314 -22 b 892 75 739 -22 828 18 b 1028 460 999 169 1028 303 b 1025 631 1028 510 1025 576 l 1025 697 b 1032 929 1025 735 1028 908 b 1129 949 1068 938 1106 943 l 1138 978 b 968 972 1114 975 1040 972 b 743 978 882 972 778 975 l 753 949 b 904 929 789 946 872 935 b 911 585 910 883 911 629 l 911 457 b 818 97 911 290 893 168 b 618 31 771 53 710 31 b 343 425 468 31 343 131 l 343 610 b 350 929 343 729 346 906 b 494 949 394 938 457 944 l 501 978 b 296 972 467 975 360 972 b 61 978 189 972 100 975 l 65 949 b 175 929 103 943 146 936 b 182 615 179 890 182 740 z m 388 1138 l 492 1067 l 561 1174 l 454 1246 z m 685 1140 l 788 1068 l 858 1174 l 753 1246 z "},"Ù":{"ha":1190,"x_min":0,"x_max":0,"o":"m 182 399 b 601 -22 182 156 314 -22 b 892 75 739 -22 828 18 b 1028 460 999 169 1028 303 b 1025 631 1028 510 1025 576 l 1025 697 b 1032 929 1025 735 1028 908 b 1129 949 1068 938 1106 943 l 1138 978 b 968 972 1114 975 1040 972 b 743 978 882 972 778 975 l 753 949 b 904 929 789 946 872 935 b 911 585 910 883 911 629 l 911 457 b 818 97 911 290 893 168 b 618 31 771 53 710 31 b 343 425 468 31 343 131 l 343 610 b 350 929 343 729 346 906 b 494 949 394 938 457 944 l 501 978 b 296 972 467 975 360 972 b 61 978 189 972 100 975 l 65 949 b 175 929 103 943 146 936 b 182 615 179 890 182 740 z m 347 1179 b 660 1067 378 1182 636 1078 l 676 1111 b 401 1286 663 1114 446 1256 z "},"Ý":{"ha":908,"x_min":0,"x_max":0,"o":"m 397 306 b 390 43 397 217 396 64 b 268 24 358 35 294 26 l 261 -6 b 451 0 300 -3 401 0 b 700 -6 546 0 671 -3 l 697 24 b 563 43 671 28 579 39 b 556 301 557 78 556 264 l 556 354 b 561 453 556 388 557 429 b 897 929 581 514 867 919 b 992 949 926 938 971 944 l 996 978 b 828 972 964 975 892 972 b 653 978 751 972 674 975 l 657 949 b 765 929 675 946 736 936 b 525 508 761 872 547 549 b 258 929 482 582 340 785 b 378 949 290 936 353 943 l 385 978 b 193 972 365 975 272 972 b -49 978 67 972 -25 975 l -43 949 b 54 929 -15 943 36 938 b 393 442 118 869 382 478 b 397 350 397 406 397 369 z m 718 1286 b 443 1111 674 1256 457 1114 l 460 1067 b 771 1179 482 1078 740 1182 z "},"Ÿ":{"ha":908,"x_min":0,"x_max":0,"o":"m 397 306 b 390 43 397 217 396 64 b 268 24 358 35 294 26 l 261 -6 b 451 0 300 -3 401 0 b 700 -6 546 0 671 -3 l 697 24 b 563 43 671 28 579 39 b 556 301 557 78 556 264 l 556 354 b 561 453 556 388 557 429 b 897 929 581 514 867 919 b 992 949 926 938 971 944 l 996 978 b 828 972 964 975 892 972 b 653 978 751 972 674 975 l 657 949 b 765 929 675 946 736 936 b 525 508 761 872 547 549 b 258 929 482 582 340 785 b 378 949 290 936 353 943 l 385 978 b 193 972 365 975 272 972 b -49 978 67 972 -25 975 l -43 949 b 54 929 -15 943 36 938 b 393 442 118 869 382 478 b 397 350 397 406 397 369 z m 260 1138 l 364 1067 l 433 1174 l 326 1246 z m 557 1140 l 660 1068 l 731 1174 l 625 1246 z "},"Ž":{"ha":997,"x_min":0,"x_max":0,"o":"m 906 307 b 847 126 896 272 865 150 b 272 50 775 67 444 43 b 936 964 346 163 860 868 b 539 957 850 960 568 957 b 188 969 504 957 217 964 b 183 1099 186 990 185 1061 l 151 1106 b 107 690 147 1046 138 824 l 139 694 b 189 856 147 718 175 819 b 708 915 231 894 614 918 b 38 -8 664 835 107 65 b 417 0 161 -4 357 0 b 836 -17 544 0 819 -7 b 829 -150 836 -43 831 -124 l 861 -160 b 938 315 867 -89 931 275 z m 669 1274 b 522 1182 651 1260 557 1196 b 356 1274 493 1192 367 1265 l 329 1240 b 519 1072 356 1219 465 1115 b 694 1240 546 1100 665 1210 z "},"á":{"ha":989,"x_min":0,"x_max":0,"o":"m 586 -6 b 821 0 624 -3 781 0 b 1051 -6 894 0 1035 -3 l 1047 24 b 925 43 1006 29 965 35 b 736 506 861 165 775 399 b 590 931 683 651 607 869 b 696 949 622 939 660 944 l 700 978 b 463 972 660 975 521 972 b 282 978 439 972 324 975 l 283 949 b 393 931 317 944 363 939 b 47 43 374 878 97 131 b -72 24 10 35 -32 28 l -76 -6 b 85 0 -44 -3 49 0 b 294 -6 125 0 251 -3 l 289 24 b 169 43 250 28 204 33 b 267 432 183 150 258 413 b 588 450 318 440 539 450 b 733 43 610 410 708 115 b 593 24 690 33 642 28 z m 578 492 l 286 497 b 433 907 300 543 390 783 l 436 907 b 578 492 460 831 547 583 z m 690 1286 b 415 1111 646 1256 429 1114 l 432 1067 b 743 1179 454 1078 713 1182 z "},"â":{"ha":989,"x_min":0,"x_max":0,"o":"m 586 -6 b 821 0 624 -3 781 0 b 1051 -6 894 0 1035 -3 l 1047 24 b 925 43 1006 29 965 35 b 736 506 861 165 775 399 b 590 931 683 651 607 869 b 696 949 622 939 660 944 l 700 978 b 463 972 660 975 521 972 b 282 978 439 972 324 975 l 283 949 b 393 931 317 944 363 939 b 47 43 374 878 97 131 b -72 24 10 35 -32 28 l -76 -6 b 85 0 -44 -3 49 0 b 294 -6 125 0 251 -3 l 289 24 b 169 43 250 28 204 33 b 267 432 183 150 258 413 b 588 450 318 440 539 450 b 733 43 610 410 708 115 b 593 24 690 33 642 28 z m 578 492 l 286 497 b 433 907 300 543 390 783 l 436 907 b 578 492 460 831 547 583 z m 338 1072 b 485 1164 356 1086 450 1149 b 651 1072 514 1149 636 1081 l 678 1106 b 488 1274 651 1126 542 1225 b 311 1104 464 1246 343 1132 z "},"ä":{"ha":989,"x_min":0,"x_max":0,"o":"m 586 -6 b 821 0 624 -3 781 0 b 1051 -6 894 0 1035 -3 l 1047 24 b 925 43 1006 29 965 35 b 736 506 861 165 775 399 b 590 931 683 651 607 869 b 696 949 622 939 660 944 l 700 978 b 463 972 660 975 521 972 b 282 978 439 972 324 975 l 283 949 b 393 931 317 944 363 939 b 47 43 374 878 97 131 b -72 24 10 35 -32 28 l -76 -6 b 85 0 -44 -3 49 0 b 294 -6 125 0 251 -3 l 289 24 b 169 43 250 28 204 33 b 267 432 183 150 258 413 b 588 450 318 440 539 450 b 733 43 610 410 708 115 b 593 24 690 33 642 28 z m 578 492 l 286 497 b 433 907 300 543 390 783 l 436 907 b 578 492 460 831 547 583 z m 260 1138 l 364 1067 l 433 1174 l 326 1246 z m 557 1140 l 660 1068 l 731 1174 l 625 1246 z "},"à":{"ha":989,"x_min":0,"x_max":0,"o":"m 586 -6 b 821 0 624 -3 781 0 b 1051 -6 894 0 1035 -3 l 1047 24 b 925 43 1006 29 965 35 b 736 506 861 165 775 399 b 590 931 683 651 607 869 b 696 949 622 939 660 944 l 700 978 b 463 972 660 975 521 972 b 282 978 439 972 324 975 l 283 949 b 393 931 317 944 363 939 b 47 43 374 878 97 131 b -72 24 10 35 -32 28 l -76 -6 b 85 0 -44 -3 49 0 b 294 -6 125 0 251 -3 l 289 24 b 169 43 250 28 204 33 b 267 432 183 150 258 413 b 588 450 318 440 539 450 b 733 43 610 410 708 115 b 593 24 690 33 642 28 z m 578 492 l 286 497 b 433 907 300 543 390 783 l 436 907 b 578 492 460 831 547 583 z m 247 1179 b 560 1067 278 1182 536 1078 l 576 1111 b 301 1286 563 1114 346 1256 z "},"å":{"ha":989,"x_min":0,"x_max":0,"o":"m 586 -6 b 821 0 624 -3 781 0 b 1051 -6 894 0 1035 -3 l 1047 24 b 925 43 1006 29 965 35 b 736 506 861 165 775 399 b 590 931 683 651 607 869 b 696 949 622 939 660 944 l 700 978 b 463 972 660 975 521 972 b 282 978 439 972 324 975 l 283 949 b 393 931 317 944 363 939 b 47 43 374 878 97 131 b -72 24 10 35 -32 28 l -76 -6 b 85 0 -44 -3 49 0 b 294 -6 125 0 251 -3 l 289 24 b 169 43 250 28 204 33 b 267 432 183 150 258 413 b 588 450 318 440 539 450 b 733 43 610 410 708 115 b 593 24 690 33 642 28 z m 578 492 l 286 497 b 433 907 300 543 390 783 l 436 907 b 578 492 460 831 547 583 z m 475 1074 b 656 1199 590 1074 656 1147 b 503 1288 656 1249 610 1288 b 335 1164 426 1288 335 1233 b 475 1074 335 1106 397 1074 z m 413 1188 b 490 1260 413 1231 456 1260 b 574 1175 544 1260 574 1214 b 500 1101 574 1131 539 1101 b 413 1188 461 1101 413 1133 z "},"ã":{"ha":989,"x_min":0,"x_max":0,"o":"m 586 -6 b 821 0 624 -3 781 0 b 1051 -6 894 0 1035 -3 l 1047 24 b 925 43 1006 29 965 35 b 736 506 861 165 775 399 b 590 931 683 651 607 869 b 696 949 622 939 660 944 l 700 978 b 463 972 660 975 521 972 b 282 978 439 972 324 975 l 283 949 b 393 931 317 944 363 939 b 47 43 374 878 97 131 b -72 24 10 35 -32 28 l -76 -6 b 85 0 -44 -3 49 0 b 294 -6 125 0 251 -3 l 289 24 b 169 43 250 28 204 33 b 267 432 183 150 258 413 b 588 450 318 440 539 450 b 733 43 610 410 708 115 b 593 24 690 33 642 28 z m 578 492 l 286 497 b 433 907 300 543 390 783 l 436 907 b 578 492 460 831 547 583 z m 678 1211 b 603 1168 651 1165 621 1168 b 479 1203 563 1168 518 1188 b 381 1233 440 1218 410 1233 b 274 1106 339 1233 286 1142 l 313 1097 b 394 1147 339 1142 369 1147 b 503 1115 418 1147 461 1132 b 608 1085 539 1100 579 1085 b 717 1203 654 1085 703 1163 z "},"ç":{"ha":1124,"x_min":0,"x_max":0,"o":"m 633 -21 b 679 -22 653 -22 668 -22 b 1069 61 897 -22 1038 35 l 1089 121 b 760 46 990 63 865 46 b 243 546 467 46 243 275 b 656 946 243 763 403 946 b 990 785 835 946 964 846 b 999 669 994 761 999 696 l 1031 660 b 1061 1089 1032 792 1040 936 l 1029 1082 b 1000 958 1025 1065 1008 976 b 710 994 961 969 832 994 b 296 879 569 994 440 976 b 76 464 174 797 76 656 b 364 39 76 286 183 128 b 567 -15 428 7 504 -8 l 469 -135 b 578 -235 546 -156 578 -192 b 438 -318 578 -281 532 -321 l 425 -362 b 686 -218 531 -368 686 -324 b 563 -106 686 -161 635 -126 z "},"é":{"ha":885,"x_min":0,"x_max":0,"o":"m 226 476 b 217 43 226 324 222 68 b 74 24 179 33 96 25 l 67 -6 b 278 0 121 -3 231 0 b 714 -12 365 0 674 -6 b 715 -97 715 -35 715 -60 l 744 -103 b 790 218 750 -33 781 178 l 758 210 b 728 88 750 179 743 136 b 394 40 664 51 533 40 b 385 468 390 81 385 383 l 385 496 b 656 465 504 496 613 488 b 653 372 656 438 654 401 l 679 361 b 715 621 686 406 711 596 l 686 618 b 672 558 683 599 679 579 b 385 536 639 546 504 536 l 385 564 b 394 933 385 646 390 914 b 707 875 468 933 682 915 b 707 775 708 847 707 785 l 738 765 b 765 1053 740 808 758 1024 l 733 1047 b 722 982 731 1022 726 999 b 314 972 685 972 358 972 b 192 974 283 972 238 974 b 67 978 146 975 100 976 l 72 949 b 217 929 106 944 190 935 b 226 540 222 886 226 665 z m 638 1286 b 363 1111 593 1256 376 1114 l 379 1067 b 690 1179 401 1078 660 1182 z "},"ê":{"ha":885,"x_min":0,"x_max":0,"o":"m 226 476 b 217 43 226 324 222 68 b 74 24 179 33 96 25 l 67 -6 b 278 0 121 -3 231 0 b 714 -12 365 0 674 -6 b 715 -97 715 -35 715 -60 l 744 -103 b 790 218 750 -33 781 178 l 758 210 b 728 88 750 179 743 136 b 394 40 664 51 533 40 b 385 468 390 81 385 383 l 385 496 b 656 465 504 496 613 488 b 653 372 656 438 654 401 l 679 361 b 715 621 686 406 711 596 l 686 618 b 672 558 683 599 679 579 b 385 536 639 546 504 536 l 385 564 b 394 933 385 646 390 914 b 707 875 468 933 682 915 b 707 775 708 847 707 785 l 738 765 b 765 1053 740 808 758 1024 l 733 1047 b 722 982 731 1022 726 999 b 314 972 685 972 358 972 b 192 974 283 972 238 974 b 67 978 146 975 100 976 l 72 949 b 217 929 106 944 190 935 b 226 540 222 886 226 665 z m 285 1072 b 432 1164 303 1086 397 1149 b 599 1072 461 1149 583 1081 l 625 1106 b 435 1274 599 1126 489 1225 b 258 1104 411 1246 290 1132 z "},"ë":{"ha":885,"x_min":0,"x_max":0,"o":"m 226 476 b 217 43 226 324 222 68 b 74 24 179 33 96 25 l 67 -6 b 278 0 121 -3 231 0 b 714 -12 365 0 674 -6 b 715 -97 715 -35 715 -60 l 744 -103 b 790 218 750 -33 781 178 l 758 210 b 728 88 750 179 743 136 b 394 40 664 51 533 40 b 385 468 390 81 385 383 l 385 496 b 656 465 504 496 613 488 b 653 372 656 438 654 401 l 679 361 b 715 621 686 406 711 596 l 686 618 b 672 558 683 599 679 579 b 385 536 639 546 504 536 l 385 564 b 394 933 385 646 390 914 b 707 875 468 933 682 915 b 707 775 708 847 707 785 l 738 765 b 765 1053 740 808 758 1024 l 733 1047 b 722 982 731 1022 726 999 b 314 972 685 972 358 972 b 192 974 283 972 238 974 b 67 978 146 975 100 976 l 72 949 b 217 929 106 944 190 935 b 226 540 222 886 226 665 z m 207 1138 l 311 1067 l 381 1174 l 274 1246 z m 504 1140 l 607 1068 l 678 1174 l 572 1246 z "},"è":{"ha":885,"x_min":0,"x_max":0,"o":"m 226 476 b 217 43 226 324 222 68 b 74 24 179 33 96 25 l 67 -6 b 278 0 121 -3 231 0 b 714 -12 365 0 674 -6 b 715 -97 715 -35 715 -60 l 744 -103 b 790 218 750 -33 781 178 l 758 210 b 728 88 750 179 743 136 b 394 40 664 51 533 40 b 385 468 390 81 385 383 l 385 496 b 656 465 504 496 613 488 b 653 372 656 438 654 401 l 679 361 b 715 621 686 406 711 596 l 686 618 b 672 558 683 599 679 579 b 385 536 639 546 504 536 l 385 564 b 394 933 385 646 390 914 b 707 875 468 933 682 915 b 707 775 708 847 707 785 l 738 765 b 765 1053 740 808 758 1024 l 733 1047 b 722 982 731 1022 726 999 b 314 972 685 972 358 972 b 192 974 283 972 238 974 b 67 978 146 975 100 976 l 72 949 b 217 929 106 944 190 935 b 226 540 222 886 226 665 z m 236 1179 b 549 1067 267 1182 525 1078 l 565 1111 b 290 1286 551 1114 335 1256 z "},"í":{"ha":611,"x_min":0,"x_max":0,"o":"m 385 569 b 392 929 385 740 386 901 b 538 949 442 935 510 946 l 544 978 b 331 972 521 975 401 972 b 67 978 221 972 93 975 l 74 949 b 219 929 100 946 192 935 b 226 576 225 882 226 622 l 226 494 b 219 43 226 358 225 101 b 72 24 190 38 96 25 l 67 -6 b 283 0 108 -3 236 0 b 544 -6 369 0 514 -3 l 538 24 b 392 43 510 26 426 35 b 385 483 386 71 385 303 z m 501 1286 b 226 1111 457 1256 240 1114 l 243 1067 b 554 1179 265 1078 524 1182 z "},"î":{"ha":611,"x_min":0,"x_max":0,"o":"m 385 569 b 392 929 385 740 386 901 b 538 949 442 935 510 946 l 544 978 b 331 972 521 975 401 972 b 67 978 221 972 93 975 l 74 949 b 219 929 100 946 192 935 b 226 576 225 882 226 622 l 226 494 b 219 43 226 358 225 101 b 72 24 190 38 96 25 l 67 -6 b 283 0 108 -3 236 0 b 544 -6 369 0 514 -3 l 538 24 b 392 43 510 26 426 35 b 385 483 386 71 385 303 z m 149 1072 b 296 1164 167 1086 261 1149 b 463 1072 325 1149 447 1081 l 489 1106 b 299 1274 463 1126 353 1225 b 122 1104 275 1246 154 1132 z "},"ï":{"ha":611,"x_min":0,"x_max":0,"o":"m 385 569 b 392 929 385 740 386 901 b 538 949 442 935 510 946 l 544 978 b 331 972 521 975 401 972 b 67 978 221 972 93 975 l 74 949 b 219 929 100 946 192 935 b 226 576 225 882 226 622 l 226 494 b 219 43 226 358 225 101 b 72 24 190 38 96 25 l 67 -6 b 283 0 108 -3 236 0 b 544 -6 369 0 514 -3 l 538 24 b 392 43 510 26 426 35 b 385 483 386 71 385 303 z m 71 1138 l 175 1067 l 244 1174 l 138 1246 z m 368 1140 l 471 1068 l 542 1174 l 436 1246 z "},"ì":{"ha":611,"x_min":0,"x_max":0,"o":"m 385 569 b 392 929 385 740 386 901 b 538 949 442 935 510 946 l 544 978 b 331 972 521 975 401 972 b 67 978 221 972 93 975 l 74 949 b 219 929 100 946 192 935 b 226 576 225 882 226 622 l 226 494 b 219 43 226 358 225 101 b 72 24 190 38 96 25 l 67 -6 b 283 0 108 -3 236 0 b 544 -6 369 0 514 -3 l 538 24 b 392 43 510 26 426 35 b 385 483 386 71 385 303 z m 58 1179 b 371 1067 89 1182 347 1078 l 388 1111 b 113 1286 374 1114 157 1256 z "},"ñ":{"ha":1261,"x_min":0,"x_max":0,"o":"m 61 943 b 214 926 114 940 182 933 b 175 43 214 881 199 101 b 60 24 143 33 99 29 l 56 -6 b 244 0 96 -3 204 0 b 450 -6 281 0 425 -3 l 446 24 b 294 43 419 26 315 36 b 264 850 276 93 260 822 b 593 454 310 797 574 475 b 1051 -69 625 418 1010 -31 b 1075 635 1060 -14 1071 569 b 1101 929 1078 679 1085 875 b 1207 949 1139 935 1189 946 l 1213 978 b 1038 972 1183 975 1068 972 b 831 978 1007 972 857 975 l 838 949 b 978 929 876 946 950 935 b 1007 215 1006 857 1007 369 b 706 560 963 253 742 521 b 372 982 682 585 403 935 b 56 972 264 976 133 975 z m 856 1211 b 781 1168 829 1165 799 1168 b 657 1203 740 1168 696 1188 b 558 1233 618 1218 588 1233 b 451 1106 517 1233 464 1142 l 490 1097 b 572 1147 517 1142 547 1147 b 681 1115 596 1147 639 1132 b 786 1085 717 1100 757 1085 b 894 1203 832 1085 881 1163 z "},"ó":{"ha":1315,"x_min":0,"x_max":0,"o":"m 639 -22 b 1239 538 981 -22 1239 197 b 1071 882 1239 667 1181 801 b 686 994 950 971 833 994 b 76 469 303 994 76 744 b 210 133 76 339 108 238 b 639 -22 339 1 499 -22 z m 707 35 b 236 528 436 35 236 279 b 635 942 236 814 444 942 b 1069 436 865 942 1069 731 b 707 35 1069 214 906 35 z m 853 1286 b 578 1111 808 1256 592 1114 l 594 1067 b 906 1179 617 1078 875 1182 z "},"ô":{"ha":1315,"x_min":0,"x_max":0,"o":"m 639 -22 b 1239 538 981 -22 1239 197 b 1071 882 1239 667 1181 801 b 686 994 950 971 833 994 b 76 469 303 994 76 744 b 210 133 76 339 108 238 b 639 -22 339 1 499 -22 z m 707 35 b 236 528 436 35 236 279 b 635 942 236 814 444 942 b 1069 436 865 942 1069 731 b 707 35 1069 214 906 35 z m 514 1072 b 661 1164 532 1086 626 1149 b 828 1072 690 1149 813 1081 l 854 1106 b 664 1274 828 1126 718 1225 b 488 1104 640 1246 519 1132 z "},"ö":{"ha":1315,"x_min":0,"x_max":0,"o":"m 639 -22 b 1239 538 981 -22 1239 197 b 1071 882 1239 667 1181 801 b 686 994 950 971 833 994 b 76 469 303 994 76 744 b 210 133 76 339 108 238 b 639 -22 339 1 499 -22 z m 707 35 b 236 528 436 35 236 279 b 635 942 236 814 444 942 b 1069 436 865 942 1069 731 b 707 35 1069 214 906 35 z m 422 1138 l 526 1067 l 596 1174 l 489 1246 z m 719 1140 l 822 1068 l 893 1174 l 788 1246 z "},"ò":{"ha":1315,"x_min":0,"x_max":0,"o":"m 639 -22 b 1239 538 981 -22 1239 197 b 1071 882 1239 667 1181 801 b 686 994 950 971 833 994 b 76 469 303 994 76 744 b 210 133 76 339 108 238 b 639 -22 339 1 499 -22 z m 707 35 b 236 528 436 35 236 279 b 635 942 236 814 444 942 b 1069 436 865 942 1069 731 b 707 35 1069 214 906 35 z m 410 1179 b 722 1067 440 1182 699 1078 l 739 1111 b 464 1286 725 1114 508 1256 z "},"õ":{"ha":1315,"x_min":0,"x_max":0,"o":"m 639 -22 b 1239 538 981 -22 1239 197 b 1071 882 1239 667 1181 801 b 686 994 950 971 833 994 b 76 469 303 994 76 744 b 210 133 76 339 108 238 b 639 -22 339 1 499 -22 z m 707 35 b 236 528 436 35 236 279 b 635 942 236 814 444 942 b 1069 436 865 942 1069 731 b 707 35 1069 214 906 35 z m 840 1211 b 765 1168 814 1165 783 1168 b 642 1203 725 1168 681 1188 b 543 1233 603 1218 572 1233 b 436 1106 501 1233 449 1142 l 475 1097 b 557 1147 501 1142 532 1147 b 665 1115 581 1147 624 1132 b 771 1085 701 1100 742 1085 b 879 1203 817 1085 865 1163 z "},"š":{"ha":767,"x_min":0,"x_max":0,"o":"m 119 -132 b 150 13 129 -81 143 -14 b 342 -22 189 -8 275 -22 b 683 281 531 -22 683 88 b 451 606 683 456 567 533 b 251 811 346 672 251 721 b 421 950 251 874 301 950 b 606 825 518 950 590 875 b 611 719 608 800 611 767 l 643 706 b 676 1086 643 819 657 949 l 644 1082 b 619 969 636 1044 629 1003 b 432 994 586 978 514 994 b 146 750 226 994 146 858 b 390 426 146 593 254 515 b 568 200 481 368 568 313 b 371 25 568 97 481 25 b 156 176 275 25 193 88 b 146 299 151 201 144 281 l 114 307 b 110 88 118 274 110 124 b 88 -140 110 33 90 -121 z m 568 1274 b 421 1182 550 1260 456 1196 b 254 1274 392 1192 265 1265 l 228 1240 b 418 1072 254 1219 364 1115 b 593 1240 444 1100 564 1210 z "},"ú":{"ha":1190,"x_min":0,"x_max":0,"o":"m 182 399 b 601 -22 182 156 314 -22 b 892 75 739 -22 828 18 b 1028 460 999 169 1028 303 b 1025 631 1028 510 1025 576 l 1025 697 b 1032 929 1025 735 1028 908 b 1129 949 1068 938 1106 943 l 1138 978 b 968 972 1114 975 1040 972 b 743 978 882 972 778 975 l 753 949 b 904 929 789 946 872 935 b 911 585 910 883 911 629 l 911 457 b 818 97 911 290 893 168 b 618 31 771 53 710 31 b 343 425 468 31 343 131 l 343 610 b 350 929 343 729 346 906 b 494 949 394 938 457 944 l 501 978 b 296 972 467 975 360 972 b 61 978 189 972 100 975 l 65 949 b 175 929 103 943 146 936 b 182 615 179 890 182 740 z m 832 1286 b 557 1111 788 1256 571 1114 l 574 1067 b 885 1179 596 1078 854 1182 z "},"û":{"ha":1190,"x_min":0,"x_max":0,"o":"m 182 399 b 601 -22 182 156 314 -22 b 892 75 739 -22 828 18 b 1028 460 999 169 1028 303 b 1025 631 1028 510 1025 576 l 1025 697 b 1032 929 1025 735 1028 908 b 1129 949 1068 938 1106 943 l 1138 978 b 968 972 1114 975 1040 972 b 743 978 882 972 778 975 l 753 949 b 904 929 789 946 872 935 b 911 585 910 883 911 629 l 911 457 b 818 97 911 290 893 168 b 618 31 771 53 710 31 b 343 425 468 31 343 131 l 343 610 b 350 929 343 729 346 906 b 494 949 394 938 457 944 l 501 978 b 296 972 467 975 360 972 b 61 978 189 972 100 975 l 65 949 b 175 929 103 943 146 936 b 182 615 179 890 182 740 z m 479 1072 b 626 1164 497 1086 592 1149 b 793 1072 656 1149 778 1081 l 819 1106 b 629 1274 793 1126 683 1225 b 453 1104 606 1246 485 1132 z "},"ü":{"ha":1190,"x_min":0,"x_max":0,"o":"m 182 399 b 601 -22 182 156 314 -22 b 892 75 739 -22 828 18 b 1028 460 999 169 1028 303 b 1025 631 1028 510 1025 576 l 1025 697 b 1032 929 1025 735 1028 908 b 1129 949 1068 938 1106 943 l 1138 978 b 968 972 1114 975 1040 972 b 743 978 882 972 778 975 l 753 949 b 904 929 789 946 872 935 b 911 585 910 883 911 629 l 911 457 b 818 97 911 290 893 168 b 618 31 771 53 710 31 b 343 425 468 31 343 131 l 343 610 b 350 929 343 729 346 906 b 494 949 394 938 457 944 l 501 978 b 296 972 467 975 360 972 b 61 978 189 972 100 975 l 65 949 b 175 929 103 943 146 936 b 182 615 179 890 182 740 z m 388 1138 l 492 1067 l 561 1174 l 454 1246 z m 685 1140 l 788 1068 l 858 1174 l 753 1246 z "},"ù":{"ha":1190,"x_min":0,"x_max":0,"o":"m 182 399 b 601 -22 182 156 314 -22 b 892 75 739 -22 828 18 b 1028 460 999 169 1028 303 b 1025 631 1028 510 1025 576 l 1025 697 b 1032 929 1025 735 1028 908 b 1129 949 1068 938 1106 943 l 1138 978 b 968 972 1114 975 1040 972 b 743 978 882 972 778 975 l 753 949 b 904 929 789 946 872 935 b 911 585 910 883 911 629 l 911 457 b 818 97 911 290 893 168 b 618 31 771 53 710 31 b 343 425 468 31 343 131 l 343 610 b 350 929 343 729 346 906 b 494 949 394 938 457 944 l 501 978 b 296 972 467 975 360 972 b 61 978 189 972 100 975 l 65 949 b 175 929 103 943 146 936 b 182 615 179 890 182 740 z m 347 1179 b 660 1067 378 1182 636 1078 l 676 1111 b 401 1286 663 1114 446 1256 z "},"ý":{"ha":908,"x_min":0,"x_max":0,"o":"m 397 306 b 390 43 397 217 396 64 b 268 24 358 35 294 26 l 261 -6 b 451 0 300 -3 401 0 b 700 -6 546 0 671 -3 l 697 24 b 563 43 671 28 579 39 b 556 301 557 78 556 264 l 556 354 b 561 453 556 388 557 429 b 897 929 581 514 867 919 b 992 949 926 938 971 944 l 996 978 b 828 972 964 975 892 972 b 653 978 751 972 674 975 l 657 949 b 765 929 675 946 736 936 b 525 508 761 872 547 549 b 258 929 482 582 340 785 b 378 949 290 936 353 943 l 385 978 b 193 972 365 975 272 972 b -49 978 67 972 -25 975 l -43 949 b 54 929 -15 943 36 938 b 393 442 118 869 382 478 b 397 350 397 406 397 369 z m 718 1286 b 443 1111 674 1256 457 1114 l 460 1067 b 771 1179 482 1078 740 1182 z "},"ÿ":{"ha":908,"x_min":0,"x_max":0,"o":"m 397 306 b 390 43 397 217 396 64 b 268 24 358 35 294 26 l 261 -6 b 451 0 300 -3 401 0 b 700 -6 546 0 671 -3 l 697 24 b 563 43 671 28 579 39 b 556 301 557 78 556 264 l 556 354 b 561 453 556 388 557 429 b 897 929 581 514 867 919 b 992 949 926 938 971 944 l 996 978 b 828 972 964 975 892 972 b 653 978 751 972 674 975 l 657 949 b 765 929 675 946 736 936 b 525 508 761 872 547 549 b 258 929 482 582 340 785 b 378 949 290 936 353 943 l 385 978 b 193 972 365 975 272 972 b -49 978 67 972 -25 975 l -43 949 b 54 929 -15 943 36 938 b 393 442 118 869 382 478 b 397 350 397 406 397 369 z m 260 1138 l 364 1067 l 433 1174 l 326 1246 z m 557 1140 l 660 1068 l 731 1174 l 625 1246 z "},"ž":{"ha":997,"x_min":0,"x_max":0,"o":"m 906 307 b 847 126 896 272 865 150 b 272 50 775 67 444 43 b 936 964 346 163 860 868 b 539 957 850 960 568 957 b 188 969 504 957 217 964 b 183 1099 186 990 185 1061 l 151 1106 b 107 690 147 1046 138 824 l 139 694 b 189 856 147 718 175 819 b 708 915 231 894 614 918 b 38 -8 664 835 107 65 b 417 0 161 -4 357 0 b 836 -17 544 0 819 -7 b 829 -150 836 -43 831 -124 l 861 -160 b 938 315 867 -89 931 275 z m 669 1274 b 522 1182 651 1260 557 1196 b 356 1274 493 1192 367 1265 l 329 1240 b 519 1072 356 1219 465 1115 b 694 1240 546 1100 665 1210 z "},"∆":{"ha":954,"x_min":0,"x_max":0,"o":"m 21 -6 b 389 0 175 0 235 0 b 943 -6 608 0 729 -1 l 924 36 b 481 1033 854 188 546 879 b 42 36 467 989 114 182 z m 442 785 b 722 92 508 640 663 260 b 165 89 563 72 358 75 b 294 422 203 189 231 256 b 442 785 342 547 392 664 z "},"Ω":{"ha":1307,"x_min":0,"x_max":0,"o":"m 1046 436 b 735 0 1046 235 908 33 b 1256 -10 822 0 1215 -3 b 1292 218 1261 60 1282 178 l 1257 210 b 1225 90 1249 179 1240 139 b 911 43 1164 58 1042 44 b 1215 538 1107 136 1215 342 b 678 994 1215 836 940 994 b 100 493 308 994 100 763 b 410 49 100 304 258 117 b 81 90 271 49 144 54 b 50 210 65 139 58 179 l 15 218 b 53 -10 25 178 47 60 b 618 0 93 -3 531 0 b 260 522 401 58 260 307 b 635 942 260 808 444 942 b 1046 436 865 942 1046 731 z "},"π":{"ha":806,"x_min":0,"x_max":0,"o":"m 735 486 b 763 697 744 558 744 599 l 725 693 b 703 618 719 678 714 654 b 533 594 667 610 642 593 b 283 597 444 596 372 597 b -4 458 163 597 79 532 l 14 429 b 211 493 83 467 135 479 b 67 -15 208 354 151 124 l 199 7 b 269 467 249 176 269 272 l 269 496 b 414 500 306 499 339 500 l 478 500 b 464 150 471 397 464 268 b 606 -17 464 15 539 -17 b 763 57 656 -17 704 6 l 767 110 b 668 64 732 81 703 64 b 601 174 625 64 601 89 b 607 499 601 264 603 349 b 735 486 668 496 688 490 z "},"€":{"ha":803,"x_min":0,"x_max":0,"o":"m 13 429 l -22 353 b 106 364 15 357 67 361 b 532 -22 143 129 314 -22 b 801 81 632 -22 724 17 l 815 138 b 596 40 749 86 672 40 b 257 372 447 40 310 175 b 321 374 278 374 299 374 b 636 367 432 375 525 376 l 667 429 l 243 429 b 233 528 238 461 235 494 b 367 532 274 531 321 532 b 685 525 478 533 574 535 l 715 588 l 235 588 b 533 946 249 785 364 946 b 738 793 663 946 718 854 b 743 685 740 769 743 711 l 781 675 b 797 1047 782 807 782 894 l 763 1040 b 744 953 760 1024 750 971 b 554 994 717 964 642 994 b 110 588 319 994 151 831 l 44 588 l 11 511 b 101 519 33 514 79 517 b 99 464 100 501 99 482 b 100 429 99 453 100 440 z "},"℮":{"ha":1221,"x_min":0,"x_max":0,"o":"m 1174 471 l 1174 485 b 610 992 1174 765 922 992 b 47 485 299 992 47 765 b 610 -22 47 206 299 -22 b 1056 176 792 -22 956 58 l 974 176 b 611 8 885 75 757 8 b 267 158 476 8 354 67 b 254 189 258 167 254 176 l 254 465 b 261 471 254 469 257 471 z m 967 507 b 961 499 967 504 965 499 l 261 499 b 254 507 257 499 254 504 l 254 779 b 268 814 254 793 260 804 b 611 961 357 904 478 961 b 953 818 744 961 864 906 b 967 785 963 810 967 797 z "},"∂":{"ha":819,"x_min":0,"x_max":0,"o":"m 629 578 b 621 478 629 549 625 517 b 407 579 589 524 514 579 b 53 258 221 579 53 468 b 351 -22 53 89 169 -22 b 764 522 618 -22 764 264 b 339 1088 764 786 653 1088 b 88 989 263 1088 146 1040 l 118 939 b 346 1025 169 979 276 1025 b 629 578 513 1025 629 815 z m 438 513 b 608 403 499 513 576 460 b 356 31 590 282 532 31 b 201 214 258 31 201 106 b 438 513 201 371 260 513 z "},"∏":{"ha":1253,"x_min":0,"x_max":0,"o":"m 860 917 b 868 608 860 917 868 717 l 868 294 b 860 -76 868 147 868 -29 b 731 -96 835 -82 751 -94 l 724 -125 b 953 -119 771 -122 893 -119 b 1186 -125 1018 -119 1160 -122 l 1179 -96 b 1039 -76 1151 -94 1067 -82 b 1026 361 1029 -29 1026 200 l 1026 578 b 1036 929 1026 615 1029 901 b 1178 949 1076 935 1150 946 l 1186 978 b 954 972 1161 975 1044 972 l 621 969 l 311 972 b 67 978 222 972 90 975 l 74 949 b 219 929 108 946 194 935 b 226 578 225 883 226 622 l 226 328 b 219 -76 226 222 225 -11 b 75 -96 193 -82 107 -94 l 67 -125 b 311 -119 108 -122 239 -119 b 529 -125 371 -119 500 -122 l 522 -96 b 396 -76 494 -94 433 -85 b 385 294 390 -25 385 153 l 385 608 b 396 899 385 728 390 861 b 860 917 418 904 860 917 z "},"∑":{"ha":904,"x_min":0,"x_max":0,"o":"m 772 29 b 404 -28 714 -6 606 -18 b 157 -32 319 -32 249 -33 b 554 443 219 38 382 228 b 258 915 490 525 303 835 b 749 865 353 915 693 888 b 767 710 754 826 764 735 l 796 704 b 844 1090 799 840 833 1032 l 808 1083 b 778 975 799 1047 785 994 b 436 957 683 965 471 957 b 39 964 407 957 125 960 b 422 385 115 868 346 494 b -10 -128 239 157 29 -87 b 369 -119 114 -124 310 -119 b 761 -136 497 -119 714 -129 b 757 -256 761 -162 758 -229 l 789 -265 b 863 193 794 -194 856 153 l 831 185 b 772 29 821 150 790 53 z "},"∙":{"ha":444,"x_min":0,"x_max":0,"o":"m 307 453 l 300 601 l 139 571 l 143 422 z "},"√":{"ha":799,"x_min":0,"x_max":0,"o":"m 793 1189 l 719 1175 b 593 524 685 997 626 694 l 493 15 l 489 15 b 379 300 458 99 401 243 b 253 636 354 364 294 526 b 17 518 192 601 104 556 l 33 481 l 139 522 b 275 231 197 401 242 313 b 461 -197 332 86 422 -104 l 497 -189 l 653 524 b 793 1189 689 692 758 1025 z "},"∞":{"ha":1125,"x_min":0,"x_max":0,"o":"m 1053 479 b 836 703 1053 614 961 703 b 571 529 713 703 635 608 b 304 703 500 622 414 703 b 71 472 172 703 71 608 b 293 246 71 338 175 246 b 563 418 410 246 490 329 b 826 246 656 300 742 246 b 1053 479 960 246 1053 349 z m 303 315 b 151 471 217 315 151 392 b 297 635 151 558 214 635 b 525 469 396 635 464 546 b 303 315 469 410 393 315 z m 826 635 b 972 472 907 635 972 567 b 831 315 972 401 917 315 b 604 476 760 315 697 369 b 826 635 661 536 735 635 z "},"∫":{"ha":556,"x_min":0,"x_max":0,"o":"m 324 847 b 415 1090 315 1032 360 1090 b 500 1004 461 1090 485 1063 b 504 896 501 976 507 942 l 538 886 b 576 1215 544 1006 553 1103 l 544 1213 b 518 1117 538 1183 525 1135 b 422 1136 499 1124 478 1136 b 206 564 318 1136 182 1029 l 233 18 b 138 -222 240 -124 221 -222 b 38 -154 92 -222 61 -196 b 26 -31 35 -126 26 -76 l -6 -22 b -26 -353 -4 -142 -10 -250 l 6 -346 b 28 -250 14 -308 22 -276 b 129 -268 47 -256 74 -268 b 349 319 265 -268 371 -142 z "},"≈":{"ha":847,"x_min":0,"x_max":0,"o":"m 732 632 l 703 657 b 585 582 675 632 625 583 b 438 625 547 581 472 611 b 269 678 404 638 306 678 b 111 553 210 676 144 596 l 142 528 b 261 603 164 549 228 603 b 408 554 286 601 383 563 b 574 507 443 540 536 507 b 732 632 636 506 696 588 z m 732 386 l 703 411 b 585 336 675 386 625 338 b 438 379 547 336 472 367 b 269 432 404 393 306 433 b 111 307 210 432 144 350 l 142 282 b 261 357 164 303 228 358 b 408 308 286 357 383 318 b 574 261 443 296 536 263 b 732 386 636 261 696 343 z "},"≠":{"ha":847,"x_min":0,"x_max":0,"o":"m 306 156 b 390 335 328 207 357 268 l 414 335 b 732 329 518 338 629 338 l 743 403 l 425 403 b 492 533 447 446 469 490 l 500 547 b 732 540 578 547 657 547 l 743 614 l 535 614 b 640 792 576 693 608 754 l 528 785 b 451 614 515 744 490 689 l 414 614 l 115 614 l 104 526 b 414 546 189 536 307 544 l 415 546 b 339 403 394 506 367 454 l 115 403 l 104 315 b 300 331 160 322 229 328 b 197 144 256 250 215 175 z "},"≤":{"ha":847,"x_min":0,"x_max":0,"o":"m 711 200 l 747 297 b 236 513 572 369 379 449 b 738 756 369 576 550 667 l 719 829 b 107 510 504 717 286 601 l 107 507 b 711 200 233 442 532 294 z m 732 69 l 743 143 l 414 143 l 115 143 l 104 56 b 414 75 189 65 307 72 b 732 69 518 76 629 78 z "},"≥":{"ha":847,"x_min":0,"x_max":0,"o":"m 144 829 l 108 732 b 619 517 283 660 472 579 b 118 274 486 451 304 361 l 136 200 b 751 521 354 313 569 425 l 751 522 b 144 829 618 592 322 733 z m 732 69 l 743 143 l 414 143 l 115 143 l 104 56 b 414 75 189 65 307 72 b 732 69 518 76 629 78 z "},"◊":{"ha":808,"x_min":0,"x_max":0,"o":"m 549 265 b 424 36 506 186 472 129 b 289 278 382 114 326 211 b 150 511 238 368 197 435 b 258 696 196 589 219 624 b 385 921 301 775 336 826 b 518 683 426 842 479 751 b 663 454 569 593 615 531 b 549 265 617 376 588 338 z m 447 1039 b 361 1029 428 1032 382 1031 b 353 1011 358 1019 358 1024 b 215 757 313 926 249 817 b 36 483 183 701 93 563 b 210 206 76 424 165 288 b 351 -42 238 154 318 17 b 361 -78 356 -49 364 -72 b 446 -68 378 -75 431 -71 b 454 -50 449 -58 449 -62 b 592 204 494 35 558 144 b 772 478 624 260 715 399 b 597 756 732 538 642 674 b 456 1003 569 807 489 944 b 447 1039 451 1010 444 1033 z "},"ˉ":{"ha":1274,"x_min":0,"x_max":0,"o":"m 469 1201 l 456 1111 b 811 1147 479 1126 788 1147 l 819 1201 z "},"­":{"ha":625,"x_min":0,"x_max":0,"o":"m 108 556 l 97 443 b 510 489 199 465 442 489 l 528 556 z "},"Ω":{"ha":1307,"x_min":0,"x_max":0,"o":"m 1046 436 b 735 0 1046 235 908 33 b 1256 -10 822 0 1215 -3 b 1292 218 1261 60 1282 178 l 1257 210 b 1225 90 1249 179 1240 139 b 911 43 1164 58 1042 44 b 1215 538 1107 136 1215 342 b 678 994 1215 836 940 994 b 100 493 308 994 100 763 b 410 49 100 304 258 117 b 81 90 271 49 144 54 b 50 210 65 139 58 179 l 15 218 b 53 -10 25 178 47 60 b 618 0 93 -3 531 0 b 260 522 401 58 260 307 b 635 942 260 808 444 942 b 1046 436 865 942 1046 731 z "}," ":{"ha":347,"x_min":0,"x_max":0,"o":""},"ℓ":{"ha":583,"x_min":0,"x_max":0,"o":"m 533 157 b 388 50 517 121 471 50 b 226 311 290 50 226 171 l 226 408 b 493 896 361 525 493 713 b 363 1110 493 997 447 1092 b 115 635 171 1075 115 792 l 115 400 l 3 307 l 22 275 l 117 340 l 117 257 b 343 -18 117 89 206 -18 b 581 158 460 -18 547 64 z m 226 713 b 350 1049 226 939 300 1035 b 406 901 382 1025 406 961 b 226 481 406 744 332 592 z "},"μ":{"ha":838,"x_min":0,"x_max":0,"o":"m 228 60 b 381 -17 263 15 331 -17 b 547 89 461 -17 507 35 b 661 -17 564 44 590 -17 b 799 49 704 -17 760 18 l 785 86 b 663 151 710 44 663 65 l 663 613 l 536 593 l 536 143 b 401 64 508 106 467 64 b 274 232 340 64 274 131 l 274 456 b 267 613 274 503 272 579 l 139 592 b 146 436 144 543 146 486 l 146 -19 b 142 -332 146 -233 140 -300 b 281 -361 186 -347 281 -361 l 283 -353 b 228 60 257 -265 229 -67 z "},"∕":{"ha":450,"x_min":0,"x_max":0,"o":"m 547 1028 l 490 1060 l -97 -81 l -43 -114 z "}}}
